<svg width="71" height="71" viewBox="0 0 71 71" fill="none" xmlns="http://www.w3.org/2000/svg">
<path d="M34 1H1V34H34V1Z" fill="white"/>
<path d="M34 37H1V70H34V37Z" fill="white"/>
<path d="M70 1H37V34H70V1Z" fill="white"/>
<path d="M70 37H37V70H70V37Z" fill="white"/>
<path d="M11.1592 7.04982L11.585 6.58691H25.4703L25.8961 7.04982V11.0771L25.4055 11.6001H16.4356V15.4284H23.9614L24.4428 16.0301V19.7333L23.9522 20.3583H16.4356V24.6123H25.5999L25.9239 25.0058V29.0284L25.4981 29.4913H11.4878L11.1592 29.1627V7.04982ZM12.3024 11.827L12.3672 11.8918V11.7298L12.3024 11.827ZM12.3672 9.568C12.4947 9.52248 12.608 9.44427 12.6958 9.34118H12.6634L12.3672 9.568ZM12.4366 27.7971C12.4323 27.8464 12.4466 27.8955 12.4765 27.9349C12.5065 27.9742 12.55 28.001 12.5986 28.01C12.6939 28.043 12.794 28.0602 12.8948 28.061C12.8545 27.9755 12.789 27.9043 12.7071 27.8572C12.6252 27.81 12.5308 27.789 12.4366 27.7971ZM12.5014 13.6277L12.5662 13.6925L12.6634 13.6277L12.5662 13.5305L12.5014 13.6277ZM12.5014 25.2002L12.5662 25.3298L12.6634 25.2002L12.5662 25.0706L12.5014 25.2002ZM12.5014 26.7695L12.5662 26.8713L12.6634 26.7695L12.5662 26.6399L12.5014 26.7695ZM12.6958 10.7345V10.5401L12.5662 10.6373L12.6958 10.7345ZM12.5662 14.5951L12.793 14.4979H12.5662V14.5951ZM12.5986 8.90143L12.6958 8.99863L12.7606 8.90143L12.6958 8.77182L12.5986 8.90143ZM12.5986 12.1741L12.6958 12.2714L12.7606 12.1741L12.6958 12.0445L12.5986 12.1741ZM13.154 13.5166C13.1124 13.4055 13.0707 13.3036 13.0383 13.2064C13.0055 13.1068 12.9571 13.0131 12.8948 12.9287L12.6958 13.1879L13.154 13.5166ZM12.793 25.9548L12.6958 25.9872H12.793V25.9548ZM12.7282 21.8303L12.793 21.9275L12.8578 21.8303L12.793 21.6961L12.7282 21.8303ZM12.8948 9.75317C12.8629 9.78172 12.8374 9.81667 12.8198 9.85575C12.8023 9.89482 12.7932 9.93715 12.793 9.97998L12.9596 9.81797L12.8948 9.75317ZM12.8948 13.8128L12.8578 13.7804L12.793 13.8452C12.8108 13.8624 12.8334 13.8737 12.8578 13.8776L12.8948 13.8452V13.8128ZM12.793 27.3944C12.8113 27.5089 12.8718 27.6123 12.9626 27.6843C13.0535 27.7563 13.168 27.7916 13.2836 27.7832C13.2347 27.6896 13.1611 27.6111 13.0707 27.5564C12.9817 27.5006 12.8889 27.4511 12.793 27.4083V27.3944ZM12.8254 14.9238L12.8948 14.9886L13.0244 14.9238L12.8948 14.8266L12.8254 14.9238ZM12.9272 11.8455L13.0569 11.9473V11.7159L12.9272 11.8455ZM13.0569 10.3086H13.1217L13.0569 10.2114V10.3086ZM13.1217 12.2714C13.2136 12.2719 13.3042 12.2497 13.3855 12.2066H13.1217V12.2714ZM13.1217 19.2751H13.2188L13.1217 19.1779V19.2751ZM13.5475 8.90143L13.6123 8.80421L13.316 8.54036L13.2188 8.57276L13.5475 8.90143ZM13.2188 14.2711C13.2234 14.3307 13.2343 14.3897 13.2512 14.447C13.2576 14.4817 13.2736 14.514 13.2973 14.5402C13.321 14.5663 13.3515 14.5854 13.3855 14.5951L13.4503 14.4655L13.2188 14.2711ZM13.2188 17.442H13.3855V17.3124L13.2188 17.442ZM13.2188 26.214H13.3855V25.9872H13.2188V26.214ZM13.3855 20.6175C13.3365 20.6436 13.2914 20.6763 13.2512 20.7147C13.2901 20.7558 13.3354 20.7902 13.3855 20.8165V20.6175ZM13.4503 12.2852C13.4201 12.4524 13.3752 12.6166 13.316 12.7759L13.6123 12.5491L13.4503 12.2852ZM13.4503 16.3449V16.2477H13.3855L13.4503 16.3449ZM13.3855 26.3251L13.4503 26.4269C13.4503 26.4038 13.4873 26.3991 13.4966 26.4269C13.5058 26.4547 13.4966 26.4547 13.4966 26.4778L13.5613 26.575L13.6909 26.4778L13.4642 26.2464L13.3855 26.3251ZM13.4503 9.34118V9.43839H13.5475V8.7857L13.4503 9.34118ZM13.4503 13.8591L13.5475 13.8915C13.6585 13.8915 13.7326 13.8267 13.7743 13.6925C13.8159 13.5582 13.8529 13.4564 13.8761 13.3684H13.7094L13.4503 13.8591ZM13.4827 18.7659L13.5475 18.8631L13.677 18.7659L13.5475 18.6363L13.4827 18.7659ZM13.5151 26.3251L13.4827 26.4269C13.4808 26.4086 13.4827 26.3902 13.4883 26.3726C13.4939 26.3551 13.503 26.3389 13.5151 26.3251ZM13.5151 22.071L13.5475 22.1358L13.6123 22.1034L13.5475 22.0386L13.5151 22.071ZM13.5475 10.3225L13.7094 10.2253H13.5475V10.3225ZM13.7743 11.1419V10.6512L13.5475 10.878V10.9382L13.7743 11.1419ZM13.5475 25.5752L13.7743 25.4085H13.7418L13.5475 25.5752ZM13.7094 7.93396L13.7743 8.03117L14.3667 7.93396L13.7743 7.80434L13.7094 7.93396ZM13.7743 12.026L13.7094 12.0584L13.7418 12.1232L13.7743 12.0584V12.026ZM13.7094 18.3076H13.7743L13.7094 18.2104V18.3076ZM13.7418 14.7757L13.7743 14.8405V14.6738L13.7418 14.7757ZM13.7743 16.0162H14.0381L13.7743 15.8218V16.0162ZM13.7743 16.9976L14.0381 17.1318V16.9004L13.7743 16.9976ZM13.9085 19.2566L13.8761 19.289L14.1029 19.2242L13.8761 18.7612L13.7743 18.9603L13.9085 19.2566ZM14.0381 8.26262C13.9879 8.2845 13.9435 8.31778 13.9085 8.35983C13.9461 8.39906 13.9899 8.4319 14.0381 8.45704V8.26262ZM14.2001 12.3825C14.1598 12.4259 14.1109 12.4606 14.0566 12.4843C14.0302 12.4935 14.0077 12.5112 13.9926 12.5347C13.9775 12.5582 13.9707 12.5861 13.9733 12.6139C14.0162 12.6207 14.0599 12.6207 14.1029 12.6139C14.1217 12.6116 14.1389 12.6021 14.151 12.5875C14.163 12.5728 14.169 12.5541 14.1677 12.5352C14.1678 12.5226 14.165 12.5101 14.1594 12.4989C14.1537 12.4876 14.1455 12.4778 14.1353 12.4704L14.2001 12.3825ZM14.0381 13.8267L14.1029 13.9563L14.1677 13.8267L14.1214 13.7156L14.0381 13.8267ZM14.0381 18.5391L14.3667 18.4372L14.2001 18.3076L14.0381 18.5391ZM14.1677 8.42464L14.1029 8.45704L14.1677 8.52184L14.2001 8.45704L14.1677 8.42464ZM14.3667 17.8817V17.8493L14.1029 17.6549L14.3667 17.8817ZM14.1353 19.65L14.2001 19.7472L14.3343 19.65L14.2001 19.5204L14.1353 19.65ZM14.1214 26.214L14.1862 26.3436L14.3204 26.214L14.1862 26.0844L14.1214 26.214ZM14.1538 10.179L14.1862 10.2438L14.251 10.179L14.1862 10.1142L14.1538 10.179ZM14.1862 16.3634H14.3528V16.2662H14.1862V16.3634ZM14.251 20.4879L14.1862 20.5203L14.288 20.5851L14.3528 20.5203L14.251 20.4879ZM14.6768 13.7758C14.6838 13.6698 14.6559 13.5645 14.5974 13.4759C14.5389 13.3873 14.453 13.3203 14.3528 13.2851V13.3545L14.6768 13.7758ZM14.3852 18.0669L14.4176 18.1317L14.45 18.0669C14.4471 18.0408 14.4357 18.0165 14.4176 17.9975L14.3852 18.0669ZM14.3852 18.7196L14.4176 18.8816V18.5576L14.3852 18.7196ZM14.3852 25.265L14.4176 25.3622V25.103L14.3852 25.265ZM14.6444 16.5902L14.4176 16.8217L14.6768 16.5902H14.6444ZM14.4176 26.0196H14.5148L14.4176 25.9177V26.0196ZM14.45 15.2849L14.5148 15.3821L14.6444 15.2849L14.5148 15.183L14.45 15.2849ZM14.7786 12.7296L14.8434 12.6324L14.5148 12.401V12.5676L14.7786 12.7296ZM14.5148 16.169C14.5655 16.1652 14.6149 16.1513 14.6602 16.1283C14.7054 16.1053 14.7457 16.0735 14.7786 16.0348H14.5148V16.169ZM14.5148 17.1503H14.7786C14.7786 16.9976 14.6907 16.9189 14.5148 16.9189V17.1503ZM14.5472 19.1131L14.6768 19.2103L14.7462 19.1131L14.6768 18.9834L14.5472 19.1131ZM14.6768 15.021L14.7786 14.859L14.6768 14.6923V15.021ZM14.8434 17.7984V17.5716L14.6768 17.6688L14.8434 17.7984ZM14.7601 23.4366L14.6907 23.469L14.7231 23.5338L14.7925 23.469L14.7601 23.4366ZM14.7231 18.8075L14.7925 18.9048V18.6779L14.7231 18.8075ZM15.0193 27.2509C14.9514 27.2525 14.8848 27.2699 14.8249 27.3018C14.7919 27.3183 14.7645 27.3443 14.7464 27.3765C14.7282 27.4087 14.7201 27.4455 14.7231 27.4823C14.8342 27.4407 14.9314 27.362 15.0193 27.2092V27.2509ZM14.8573 8.23947L14.7925 8.30428L14.8249 8.36909L14.8573 8.30428V8.23947ZM14.8573 9.48006V9.28563L14.7925 9.38284L14.8573 9.48006ZM14.7925 11.6742L14.8573 11.7714L14.9869 11.6742L14.8573 11.577L14.7925 11.6742ZM14.8573 13.3083H14.8897L15.1165 13.2434L14.8573 13.0814L14.7925 13.2434L14.8573 13.3083ZM14.7925 23.7513L14.8573 23.8162L14.9869 23.7513L14.8573 23.6541L14.7925 23.7513ZM14.7925 26.4686H14.8573V26.214H14.7925V26.4686ZM14.8573 18.3493L15.0517 18.3817L15.3479 18.2521L15.1165 17.9234L14.8573 18.3493ZM14.9221 18.8723L14.8573 18.9048L14.9545 18.9742L15.0193 18.9048L14.9221 18.8723ZM15.0841 15.7339L14.9869 15.7987L15.0193 15.8635C15.0324 15.865 15.0457 15.8635 15.0582 15.8591C15.0706 15.8547 15.0819 15.8476 15.0913 15.8383C15.1006 15.8289 15.1077 15.8176 15.1121 15.8051C15.1165 15.7927 15.118 15.7794 15.1165 15.7663V15.7339H15.0841ZM15.2507 9.05418L15.4451 8.82736L15.0193 8.95697L15.2507 9.05418ZM15.0193 28.2322H15.1165V28.0656H15.0193V28.2322ZM15.3479 16.942L15.1489 17.0717C15.1144 17.0988 15.0874 17.1343 15.0704 17.1748C15.0534 17.2153 15.047 17.2595 15.0517 17.3031C15.0961 17.3066 15.1407 17.301 15.1829 17.2866C15.2251 17.2723 15.2639 17.2496 15.297 17.2198C15.3524 17.1648 15.402 17.1043 15.4451 17.0392L15.3479 16.942ZM15.0517 19.039L15.1165 19.1362V18.9048L15.0517 19.039ZM15.0517 19.4649L15.3803 19.5621L15.1165 19.3306L15.0517 19.4649ZM15.4775 16.1227C15.3664 16.1227 15.2878 16.2014 15.2322 16.3542C15.1767 16.5069 15.1396 16.6273 15.1165 16.7152C15.1613 16.6052 15.2348 16.5093 15.3294 16.4375C15.3833 16.3964 15.4254 16.3418 15.4515 16.2792C15.4775 16.2166 15.4865 16.1482 15.4775 16.081V16.1227ZM15.2183 13.6693L15.3479 13.7341L15.4127 13.6693L15.3479 13.5721L15.2183 13.6693ZM15.2183 27.5795L15.3479 27.6768L15.4127 27.5795L15.3479 27.4499L15.2183 27.5795ZM15.3803 14.1276L15.7089 14.2248L15.4451 13.998L15.3803 14.1276ZM15.4451 18.4789L15.5099 18.5807L15.6395 18.4789L15.5099 18.3493L15.4451 18.4789ZM15.4451 27.3851C15.5075 27.3914 15.5704 27.3789 15.6256 27.3492C15.6809 27.3195 15.726 27.274 15.7552 27.2185C15.8108 27.112 15.9357 27.0565 16.1301 27.0565L15.5747 26.7926L15.4451 27.3851ZM15.8061 28.135L16.0005 27.774L15.5099 27.5795L15.4451 27.6768L15.8061 28.135ZM15.4775 15.2062L15.5099 15.308L15.5747 15.2756L15.5099 15.2062H15.4775ZM15.5747 19.3954L15.5099 19.4649L15.6071 19.5297L15.6719 19.4649L15.5747 19.3954ZM15.7089 9.18842L15.7737 9.28563V9.05418L15.7089 9.18842ZM15.8385 9.38284H16.0005V9.28563H15.8385V9.38284ZM15.8385 26.5982H16.0977V26.4686H15.8385V26.5982ZM15.8709 18.5807L16.0005 18.6779L16.0653 18.5807L16.0005 18.4789L15.8709 18.5807ZM16.0005 10.0355H16.0977V9.93832H16.0005V10.0355ZM16.0977 27.2509L16.1671 27.3481L16.2967 27.2509L16.1671 27.1213L16.0977 27.2509ZM16.1301 18.8399L16.1671 18.9048L16.2319 18.8723L16.1671 18.8075L16.1301 18.8399ZM16.4263 27.9082L16.3616 27.9406L16.8522 27.5795L16.6902 27.5147L16.1671 27.6768L16.4263 27.9082ZM16.3939 8.30428L16.3616 8.33669L16.4263 8.40149L16.4911 8.33669L16.4263 8.30428H16.3939ZM16.3616 26.3575L16.4263 26.4593C16.4263 26.4362 16.4634 26.4315 16.4773 26.4593C16.4911 26.4871 16.4773 26.4871 16.4773 26.5102L16.542 26.6075L16.6439 26.5102C16.5852 26.4268 16.5185 26.3493 16.4449 26.2788L16.3616 26.3575ZM16.3616 28.2091L16.4263 28.3109L16.4911 28.2091L16.4356 28.0656L16.3616 28.2091ZM16.4911 26.3575C16.4688 26.3866 16.4573 26.4226 16.4587 26.4593L16.4911 26.3575ZM16.5235 9.69299C16.5923 9.77331 16.6846 9.82999 16.7874 9.85501L16.6577 9.59115L16.5235 9.69299ZM16.8522 17.6781C16.7317 17.7332 16.6372 17.8327 16.5883 17.9558C16.5459 18.0763 16.524 18.203 16.5235 18.3308C16.5671 18.2272 16.623 18.1292 16.6902 18.0391L16.8845 17.7753L16.8522 17.6781ZM16.6577 18.5622L16.755 18.4604H16.6577V18.5622ZM16.7226 26.7417L16.6577 26.7741L16.6902 26.8389L16.755 26.7741L16.7226 26.7417ZM16.755 9.15139H16.8522L16.755 9.04955V9.15139ZM17.0141 8.52647L17.0836 8.62368L17.1808 8.52647L17.0836 8.39686L17.0141 8.52647ZM17.0141 26.2325L17.0836 26.3621L17.1808 26.2649L17.0836 26.1029L17.0141 26.2325ZM17.0141 27.0842L17.0465 27.1166L17.1484 27.0842L17.0836 27.0194L17.0141 27.0842ZM17.5372 9.03104H17.639V8.93383H17.5372V9.03104ZM17.5372 9.91518H17.639V9.68836H17.5372V9.91518ZM17.639 26.214V26.052H17.5372L17.639 26.214ZM17.7362 8.21633L17.7038 8.18393L17.639 8.24873L17.6714 8.31354L17.7362 8.24873V8.21633ZM17.639 18.2937H18L17.7686 18.1965L17.639 18.2937ZM17.639 28.1767C17.7357 28.1257 17.8148 28.0466 17.8658 27.9499L17.639 28.1767ZM17.7362 10.0818H17.8658L17.7362 9.97998V10.0818ZM17.8982 10.2114L17.963 10.3086L18.0324 10.2114L17.963 10.0818L17.8982 10.2114ZM17.963 9.10047H18.0648L17.963 8.99863V9.10047ZM18 17.6734L18.0648 17.7706L18.162 17.6734L18.0648 17.5438L18 17.6734ZM18 26.3112L18.0648 26.413C18.0648 26.3899 18.1018 26.3853 18.1111 26.413C18.1203 26.4408 18.1111 26.4408 18.1111 26.4639L18.2083 26.5612L18.2731 26.4639L18.2083 26.3297L18.0787 26.2325L18 26.3112ZM18.162 26.3112C18.1458 26.3241 18.1344 26.342 18.1296 26.3621C18.1368 26.3471 18.148 26.3343 18.162 26.3251V26.3112ZM18.1944 8.57276H18.287V8.34594H18.1898L18.1944 8.57276ZM18.1944 27.524H18.3888C18.3888 27.436 18.3332 27.3944 18.2268 27.3944H18.1944V27.524ZM18.1944 28.2785H18.287L18.1898 28.0471L18.1944 28.2785ZM18.3888 17.1179H18.523L18.3888 16.9837V17.1179ZM18.6202 18.0993H18.7498C18.7498 17.9651 18.7081 17.891 18.6202 17.8678V18.0993ZM18.6526 27.1953L18.7174 27.2925L18.8146 27.1953L18.7174 27.0657L18.6526 27.1953ZM18.7498 27.9499L18.847 28.0471L18.9118 27.9499L18.847 27.8527L18.7498 27.9499ZM18.7822 16.7245L18.847 16.7893V16.6597L18.7822 16.7245ZM18.8794 8.6746L18.9442 8.77182L19.0136 8.6746L18.9442 8.57276L18.8794 8.6746ZM18.9442 27.3944L19.1756 27.2925L19.046 27.1953L18.9442 27.3944ZM19.1756 18.1965L19.2728 18.0993H19.046L19.1756 18.1965ZM19.5042 27.9499L19.8282 27.6212L19.2728 27.7184L19.5042 27.9499ZM19.3052 8.90143L19.37 8.99863L19.4718 8.90143L19.37 8.77182L19.3052 8.90143ZM19.3052 28.2785L19.37 28.3757L19.4718 28.2785L19.37 28.1767L19.3052 28.2785ZM19.6014 17.3448V17.0485L19.37 17.2152L19.6014 17.3448ZM19.5366 27.1953L19.6014 27.2925L19.6662 27.1953L19.6014 27.0657L19.5366 27.1953ZM19.8282 8.57276V8.31354L19.6014 8.44315L19.8282 8.57276ZM19.7634 9.26249L19.6986 9.3273L19.7634 9.3921L19.8282 9.3273L19.7634 9.26249ZM19.6986 17.641H19.8282V17.5438L19.6986 17.641ZM19.8606 18.5252L19.93 18.6224L19.9949 18.5252L19.93 18.4233L19.8606 18.5252ZM20.2216 8.28113L20.254 8.34594V8.24873L20.2216 8.28113ZM20.3513 17.5392V17.4373H20.254L20.3513 17.5392ZM20.3513 8.56814H20.4855V8.43852H20.3513V8.56814ZM20.3883 9.54949L20.4855 9.65133L20.5503 9.54949L20.4855 9.41988L20.3883 9.54949ZM20.4531 16.5532L20.4207 16.655L20.4855 16.7847V16.5532H20.4531ZM20.5503 17.7336L20.4531 17.8308L20.5179 17.8632L20.6151 17.7984L20.5503 17.7336ZM20.4855 27.2879H20.5179L20.6799 27.1907L20.4855 27.2879ZM20.5827 9.74853H20.6799L20.5827 9.65133V9.74853ZM20.6151 8.2441L20.6799 8.34131L20.7771 8.2441L20.6799 8.10986L20.6151 8.2441ZM20.6012 17.8817L20.666 17.9789L20.7632 17.8817L20.666 17.7845L20.6012 17.8817ZM20.666 18.9325L20.6984 18.9649L21.1242 18.6363L20.666 18.9325ZM20.6984 9.89667L20.8002 9.99388L20.865 9.89667L20.8002 9.76705L20.6984 9.89667ZM20.6984 27.3064L20.8002 27.4083C20.8002 27.3851 20.8372 27.3805 20.8465 27.4083C20.8558 27.436 20.8465 27.436 20.8465 27.4592L20.9113 27.5564L20.9761 27.4592C20.9376 27.3722 20.8826 27.2936 20.8141 27.2277L20.6984 27.3064ZM20.8326 9.34118L20.8974 9.43839L20.9622 9.34118L20.8974 9.24397L20.8326 9.34118ZM20.865 27.3064C20.8529 27.3203 20.8438 27.3365 20.8382 27.354C20.8326 27.3715 20.8307 27.39 20.8326 27.4083L20.865 27.3064ZM20.9946 26.4269L20.9113 26.6537C20.884 26.7285 20.884 26.8104 20.9113 26.8852H21.0085L20.9946 26.4269ZM20.8974 18.0947H21.1242L20.9946 17.9604L20.8974 18.0947ZM21.2214 28.0424L20.8974 28.0749L21.1242 28.1721L21.0918 28.1397L21.189 28.0424H21.2214ZM20.9946 17.4373H21.55L21.1242 17.2105L20.9946 17.4373ZM21.3232 17.6364H21.4528L21.3232 17.5392V17.6364ZM21.4852 9.22546L21.55 9.32266L21.6148 9.22546L21.55 9.09585L21.4852 9.22546ZM21.5176 16.6041L21.55 16.6365V16.5347L21.5176 16.6041ZM21.55 8.3228H21.6796C21.6796 8.19319 21.6379 8.11449 21.55 8.09135V8.3228ZM21.5824 16.7661L21.6472 16.8634L21.7444 16.7661L21.6472 16.6365L21.5824 16.7661ZM21.7814 17.8447C21.7382 17.8657 21.7026 17.8997 21.6796 17.9419C21.6602 17.9841 21.6492 18.0297 21.6472 18.0762H21.8786L21.7814 17.8447ZM21.7814 9.63281H21.8786C21.8786 9.49857 21.8462 9.4245 21.7814 9.40136V9.63281ZM21.8786 26.2973L21.7814 25.9409L21.8138 26.2649L21.8786 26.2973ZM21.7814 27.686L21.8786 27.5888H21.7814V27.686ZM21.9758 17.5022L22.3692 17.3679L22.1054 17.1735L21.8786 17.2707L21.9758 17.5022ZM22.0082 26.9269L21.911 27.0241L22.1054 26.9269H22.0082ZM21.9897 9.89667H22.2211V9.76705H21.9897V9.89667ZM21.9897 18.7659C22.1302 18.7116 22.25 18.6144 22.3322 18.4881C22.4104 18.3674 22.4815 18.2422 22.5451 18.1132L22.2211 17.9789L21.9897 18.7659ZM22.3183 8.7857L22.1702 8.93383C22.142 8.96137 22.12 8.99461 22.1056 9.03132C22.0913 9.06804 22.0849 9.10739 22.0869 9.14677C22.1281 9.14702 22.1679 9.13203 22.1986 9.10467C22.2294 9.07732 22.249 9.03955 22.2535 8.99863C22.2649 8.92493 22.2867 8.85323 22.3183 8.7857ZM22.5127 27.7971L22.5451 27.8666C22.5549 27.8578 22.5629 27.8471 22.5685 27.8352C22.574 27.8232 22.5771 27.8103 22.5775 27.7971C22.5755 27.7721 22.5639 27.7489 22.5451 27.7323L22.5127 27.7971ZM22.5775 8.68849L22.6423 8.7857L22.7441 8.68849L22.6423 8.58665L22.5775 8.68849ZM22.7765 17.6549C22.7136 17.7306 22.6678 17.819 22.6423 17.9141L22.8737 17.7845L22.7765 17.6549ZM22.6747 27.2092L22.7765 27.3064L22.8413 27.2092L22.7765 27.0796L22.6747 27.2092ZM22.7765 10.0818H22.8737L22.7765 9.97998V10.0818ZM23.0033 26.8713L23.1005 26.9685L23.1653 26.8713L23.1005 26.7371L23.0033 26.8713ZM23.4939 27.4592C23.4056 27.5251 23.3381 27.6151 23.2996 27.7184L23.5263 27.524L23.4939 27.4592ZM23.4615 9.54949L23.5263 9.65133L23.5911 9.54949L23.5263 9.41988L23.4615 9.54949ZM23.5263 8.66998L23.6282 8.99401V8.76718H23.5263V8.66998ZM23.5587 8.14227L23.6282 8.2441H23.7254L23.6282 8.01265L23.5587 8.14227ZM23.9846 27.848L24.1188 27.9452V27.7138L23.9846 27.848ZM24.2484 9.91055L24.2808 9.97536L24.3456 9.91055L24.2808 9.87815L24.2484 9.91055ZM24.5076 10.1744H24.4104L24.4752 10.2716L24.5076 10.2068V10.1744ZM24.4428 9.32266L24.5076 9.22546H24.4428V9.32266Z" fill="#FFBB6D"/>
<path d="M57.3691 26.4225C55.9555 26.4591 54.5692 26.0279 53.4257 25.1958C52.2936 24.3371 51.3985 23.2045 50.8245 21.9046C50.4643 21.9478 50.1156 22.0594 49.797 22.2332C49.3342 22.4508 48.7973 22.7193 48.2095 23.034C47.6217 23.3488 47.0015 23.696 46.3581 24.0663L44.5438 25.1125C43.9745 25.4411 43.4792 25.7096 43.0534 25.9179C42.7852 26.0709 42.4923 26.1759 42.1879 26.2281C42.0197 26.2241 41.8573 26.1656 41.7251 26.0614C41.6539 26.0166 41.5953 25.9544 41.5548 25.8808C41.5144 25.8071 41.4933 25.7243 41.4937 25.6402V21.0482L41.9565 20.5205L50.3663 16.2664V14.2065H42.0583L41.4983 13.5214V9.46173L41.9611 8.90625H63.9507C64.0297 8.91129 64.1061 8.93649 64.1725 8.97944C64.2389 9.02239 64.2932 9.08166 64.3303 9.15159C64.4308 9.26562 64.4939 9.40784 64.5108 9.55894V19.4095C64.5165 20.3564 64.3209 21.2936 63.9369 22.1591C63.5657 22.9935 63.0449 23.7529 62.4002 24.3996C61.7533 25.0456 60.9859 25.5583 60.1416 25.9087C59.2605 26.2615 58.3182 26.4362 57.3691 26.4225V26.4225ZM43.021 22.1684L42.9192 22.2332L43.021 22.298L43.1182 22.2332L43.021 22.1684ZM43.4654 11.3272L43.3635 11.4568H43.5949L43.4654 11.3272ZM43.5301 11.0634L43.4654 11.1282H43.5949L43.5301 11.0634ZM43.5301 21.437H43.4654V21.5065L43.5301 21.437ZM43.7893 10.8643C43.7589 10.8547 43.7313 10.8379 43.7087 10.8153C43.6862 10.7928 43.6694 10.7651 43.6598 10.7347L43.5949 10.7995C43.6181 10.8227 43.6829 10.8643 43.7893 10.8643ZM43.6922 23.3627L43.5949 23.4923L43.6922 23.5571L43.7893 23.4923L43.6922 23.3627ZM43.7246 12.253L43.6922 12.1558C43.682 12.1632 43.6737 12.173 43.6681 12.1843C43.6624 12.1956 43.6596 12.208 43.6598 12.2206L43.6922 12.253H43.7246ZM43.6922 22.8211V22.8998L43.7893 22.8304L43.6922 22.8211ZM43.8912 22.5943L43.7893 22.6591L43.8912 22.7887L44.0208 22.6591L43.8912 22.5943ZM43.9236 21.025L44.118 21.1546L44.2476 21.025H43.9236ZM43.9236 21.2519V21.3491L44.0208 21.2519H43.9236ZM44.2476 21.974L44.479 22.0712L43.9236 21.5481V21.6777L44.1828 21.9416C44.1596 21.9184 44.1365 21.9184 44.1041 21.9416C44.072 21.957 44.0436 21.9791 44.0208 22.0064L44.118 22.136L44.2476 22.0064V21.974ZM44.2476 10.8643C44.1914 10.7936 44.1102 10.7472 44.0208 10.7347V10.8643H44.2476ZM44.118 22.9415L44.0208 23.0063L44.118 23.1359L44.2476 23.0063L44.118 22.9415ZM44.2059 11.3272L44.1087 11.4568H44.3401L44.2059 11.3272ZM44.3401 11.7531C44.3401 11.73 44.3031 11.6883 44.2383 11.6189V11.6559C44.2383 11.6559 44.2707 11.7207 44.3401 11.7855V11.7531ZM44.3123 22.4369L44.2476 22.5017L44.4466 22.8257L44.479 22.6637L44.3123 22.4369ZM44.3494 21.2565V21.3213L44.6086 21.5527H44.6687L44.5715 21.8444C44.6459 21.775 44.7367 21.7256 44.8354 21.7009C44.8866 21.6851 44.9308 21.652 44.9603 21.6072C44.9899 21.5625 45.003 21.5089 44.9974 21.4555C44.9094 21.4555 44.8539 21.4324 44.8354 21.3861C44.8106 21.3414 44.7934 21.2929 44.7845 21.2426C44.7845 21.1871 44.7845 21.1361 44.7521 21.0945C44.7197 21.0528 44.7011 21.0297 44.6363 21.0297L44.3494 21.2565ZM44.5114 11.5679L44.4466 11.6003L44.5114 11.6698L44.5762 11.6003L44.5114 11.5679ZM44.6734 11.8318L44.5438 11.767L44.4466 11.8318L44.5438 11.767L44.6734 11.8318ZM44.5438 12.0956L44.4466 12.1605L44.5438 12.2253L44.6734 12.1605L44.5438 12.0956ZM44.5438 21.3213L44.4466 21.2565L44.5438 21.1917L44.6734 21.2565L44.5438 21.3213ZM44.5762 22.3351V22.5017L45.0668 22.3351L45.5574 22.5665L45.0668 22.011L44.5762 22.3351ZM44.6734 12.0956L44.7706 12.1605V11.929L44.6734 12.0956ZM44.6687 22.8998V23.1266L44.9002 22.997L44.6687 22.8998ZM44.9974 11.605L45.2242 11.7716L45.0946 11.5078L44.9974 11.605ZM45.326 11.1837L45.1918 10.7903L45.0946 11.1837L45.1918 11.1143L45.326 11.1837ZM45.1918 21.7518C45.2429 21.7507 45.2936 21.7619 45.3395 21.7844C45.3854 21.807 45.4252 21.8403 45.4556 21.8814C45.5213 21.9659 45.5556 22.0706 45.5528 22.1777H45.65C45.65 22.0666 45.5944 21.9138 45.5528 21.7148C45.5467 21.6408 45.5229 21.5694 45.4834 21.5066C45.4439 21.4437 45.3899 21.3913 45.326 21.3537L45.1918 21.7518ZM45.326 10.8875L45.2242 10.9523L45.326 11.2161L45.4232 10.9523L45.326 10.8875ZM45.4232 10.6236V10.6884L45.5528 10.8551H45.65L45.6176 10.5264L45.4232 10.6236ZM45.5528 11.4754L45.4232 11.5078H45.65L45.5528 11.4754ZM45.4278 21.0482C45.4244 21.1068 45.4244 21.1655 45.4278 21.2241C45.43 21.2576 45.4421 21.2896 45.4628 21.316C45.4834 21.3425 45.5116 21.362 45.5435 21.3722L45.6407 21.1778L45.4278 21.0482ZM45.7564 11.1282C45.7299 11.0796 45.6955 11.0358 45.6546 10.9986C45.6164 11.0371 45.5837 11.0807 45.5574 11.1282H45.7564ZM45.8536 20.5575L45.7564 20.6223L45.8536 20.6871L45.9832 20.6223L45.8536 20.5575ZM45.9832 11.8827L45.886 11.9475L45.9832 12.0771L46.0804 11.9475L45.9832 11.8827ZM45.886 21.7009V21.8629H45.9832L45.886 21.7009ZM46.21 11.2624L46.0804 11.2948L46.21 11.3596L46.3118 11.2948L46.21 11.2624ZM46.0804 20.9463V21.0158L46.21 21.4787L46.7376 21.1824L46.6358 21.15L46.409 21.2796L46.0804 20.9463ZM46.1776 22.2888L46.0804 22.3536L46.1776 22.4878L46.3118 22.3536L46.1776 22.2888ZM46.247 10.869V10.7717L46.1452 10.8366L46.21 10.869H46.247ZM46.3118 19.8354L46.21 19.7382V19.7706C46.2084 19.7841 46.21 19.7979 46.2146 19.8108C46.2192 19.8236 46.2267 19.8352 46.2366 19.8447C46.2465 19.8541 46.2584 19.8611 46.2715 19.8651C46.2845 19.8691 46.2984 19.87 46.3118 19.8678V19.8354ZM46.4414 10.4755L46.3118 10.5403L46.4414 10.6051L46.571 10.5403L46.4414 10.4755ZM46.4414 11.5541L46.3118 11.6189L46.4414 11.7531L46.571 11.6189L46.4414 11.5541ZM46.4414 20.8815L46.3118 20.9463L46.4414 21.0158L46.571 20.9463L46.4414 20.8815ZM46.409 11.8503C46.4708 11.9215 46.5485 11.977 46.6358 12.0123V11.8503H46.409ZM46.571 12.6048L46.8024 12.7669C46.7983 12.7057 46.7874 12.6451 46.77 12.5863C46.7627 12.552 46.7465 12.5202 46.7229 12.4942C46.6993 12.4682 46.6693 12.4488 46.6358 12.4382V12.6048H46.571ZM47.094 10.7532L46.9645 10.619L47.1264 10.5542H47.1635L46.8996 10.295L46.7376 10.5866C46.7329 10.6302 46.7394 10.6744 46.7564 10.7149C46.7734 10.7553 46.8004 10.7908 46.8348 10.818C46.9092 10.8633 46.9933 10.8903 47.0802 10.8967C47.1736 10.9084 47.2663 10.9254 47.3579 10.9476C47.4006 10.9577 47.4405 10.9775 47.4742 11.0057C47.508 11.0338 47.5347 11.0694 47.5522 11.1097C47.554 11.0042 47.5197 10.9013 47.4551 10.818C47.3903 10.7309 47.314 10.6531 47.2283 10.5866V10.619L47.094 10.7532ZM46.7376 20.2751L46.9645 20.502L46.8996 20.1779L46.7376 20.2751ZM46.7376 22.5017H46.8996V22.3351L46.7376 22.5017ZM46.9321 11.2439L46.8996 11.1791L46.8348 11.2439L46.8996 11.2763L46.9321 11.2439ZM46.8996 11.8318L47.0616 11.9938L47.2931 11.8318H46.8996ZM46.9645 19.6224V20.3723L47.0616 19.7197L46.9645 19.6224ZM46.9645 21.4741V21.8629C47.0293 21.8629 47.0848 21.812 47.1264 21.7009C47.1681 21.5898 47.2051 21.5157 47.2283 21.4741H46.9645ZM47.2283 12.2438V12.4058H47.2931L47.2283 12.2438ZM47.2931 20.576V20.6084L47.5522 20.8028L47.2931 20.576ZM47.4875 12.1651L47.3903 12.2299L47.4875 12.3595L47.6217 12.2299L47.4875 12.1651ZM47.4458 21.4139L47.381 21.3491V21.4833L47.4458 21.4139ZM47.9364 12.7437C47.8931 12.6768 47.83 12.625 47.7559 12.5956L47.543 12.5123L47.9364 12.7437ZM47.742 11.3041L47.6124 11.4337H47.8716L47.742 11.3041ZM47.8392 11.9244H48.1678C48.0663 11.8875 47.9722 11.8326 47.8901 11.7624C47.8058 11.6941 47.7123 11.638 47.6124 11.5957L47.8392 11.9244ZM47.8068 10.9986L47.7096 11.1282H47.9364L47.8068 10.9986ZM47.8068 11.9799L47.7096 12.1142H47.9364L47.8068 11.9799ZM47.7096 12.4428H47.7744C47.9272 12.4428 48.0151 12.3873 48.0336 12.2808H48.0012L47.7096 12.4428ZM47.8716 21.0528V21.1824H47.9364L47.8716 21.0528ZM48.626 11.2995C48.6682 11.4264 48.69 11.5592 48.6908 11.6929V12.0818L48.626 11.8549L48.4594 11.8873L48.3622 11.8549L48.5936 11.7901C48.5056 11.6812 48.4063 11.5819 48.2974 11.4939C48.1918 11.3938 48.0539 11.3347 47.9086 11.3272C47.908 11.379 47.9179 11.4303 47.9378 11.4781C47.9577 11.5258 47.9872 11.569 48.0244 11.605C48.1007 11.6819 48.1827 11.7531 48.2697 11.8179L48.515 11.9984C48.553 12.0266 48.5835 12.0638 48.6036 12.1066C48.6238 12.1494 48.6331 12.1965 48.6307 12.2438L48.5289 12.503L48.9917 12.6372L48.8621 12.4058L49.0287 11.8179L49.3203 12.2114L49.5193 12.0818L48.9593 11.5865V11.5216L48.626 11.2995ZM48.0706 11.068L47.9688 10.9708L47.9364 11.0032L48.0336 11.1328L48.0706 11.068ZM48.2002 12.5076C48.2002 12.5076 48.2002 12.5539 48.1493 12.5724C48.0984 12.591 48.0891 12.5724 48.0706 12.54L47.9364 12.6095L48.0706 12.7391L48.2002 12.6095C48.2002 12.6095 48.2002 12.6419 48.2465 12.6419C48.2928 12.6419 48.2974 12.6419 48.2974 12.6095L48.2002 12.5076ZM48.1678 12.1188L48.0336 12.1836L48.1678 12.2484L48.2974 12.1836L48.1678 12.1188ZM48.2326 10.3829L48.2002 10.3181L48.1354 10.3829L48.2002 10.4477L48.2326 10.3829ZM48.2002 12.6095C48.2002 12.6095 48.1678 12.6095 48.1678 12.5724C48.1747 12.5687 48.1827 12.5675 48.1904 12.5692C48.1981 12.5709 48.2049 12.5754 48.2095 12.5817L48.2002 12.6095ZM48.265 11.2208L48.2002 11.2856L48.265 11.4152L48.3622 11.2856L48.265 11.2208ZM48.2002 20.2844V20.3816H48.3715L48.2002 20.2844ZM48.2974 10.6282V10.7301L48.3622 10.6282H48.2974ZM48.626 18.9605L48.8528 19.1919V19.0901L48.626 18.9605ZM48.7232 10.943L48.7557 10.9106L48.6908 10.8458C48.6807 10.8532 48.6724 10.863 48.6667 10.8743C48.6611 10.8855 48.6583 10.898 48.6584 10.9106L48.6908 10.943H48.7232ZM48.9176 18.8957L48.8528 18.9605L48.9176 19.0253L49.0195 18.9605L48.9176 18.8957ZM48.8528 20.0437V20.1733L48.95 20.0437H48.8528ZM48.9824 11.1745H48.95C48.9925 11.2537 49.0547 11.3207 49.1306 11.3689C49.2092 11.4105 49.2786 11.4568 49.3434 11.4985L48.9824 11.1745ZM49.0843 19.7798L49.0195 19.8446H49.1815L49.0843 19.7798ZM49.3434 12.8363C49.3434 12.7946 49.3018 12.7391 49.2787 12.6743C49.2575 12.6129 49.2245 12.5563 49.1815 12.5076C49.2193 12.6276 49.2772 12.7403 49.3527 12.8409L49.3434 12.8363ZM49.2555 19.6595L49.1907 19.7243L49.2555 19.8215L49.3527 19.7243L49.2555 19.6595ZM49.4175 19.2336H49.3203L49.3527 19.2984L49.4175 19.2336ZM49.5193 11.804L49.4175 11.7392L49.3527 11.7716L49.4499 11.8688L49.5193 11.8364V11.804ZM49.4869 18.4467L49.3527 18.5439L49.4869 18.6087L49.6165 18.5439L49.4869 18.4467ZM49.4499 10.7903L49.6165 11.1143C49.6602 11.094 49.699 11.0644 49.7302 11.0276C49.7613 10.9909 49.7841 10.9478 49.797 10.9014C49.8274 10.8119 49.843 10.7181 49.8433 10.6236V10.5264L49.4499 10.7903ZM49.5841 10.4616L49.5193 10.5264L49.5841 10.5912L49.6813 10.5264L49.5841 10.4616ZM49.7137 12.1003L49.6165 12.1651L49.7137 12.2299L49.8433 12.1651L49.7137 12.1003ZM49.6813 19.6271V19.9511L49.9405 19.6271H49.6813ZM49.9081 10.2348L49.8433 10.2996L49.9081 10.3968L50.0099 10.2996L49.9081 10.2348ZM50.0099 12.0864C49.9836 12.0363 49.9492 11.991 49.9081 11.9521L49.8433 12.0864H50.0099ZM50.0423 10.5449L49.9405 10.6097L50.0423 10.744L50.1719 10.6097L50.0423 10.5449ZM50.1395 10.7764C50.0694 10.8134 50.0028 10.8568 49.9405 10.906L50.2691 10.8412L50.1395 10.7764ZM50.0423 12.628L50.1719 12.7252L50.2691 12.5956L50.1395 12.5261L50.0099 12.5956L49.9405 12.7576L50.0423 12.8224L50.1719 12.7252L50.0099 12.628H50.0423ZM49.9405 18.7337V18.9605H50.1719L49.9405 18.7337ZM50.0423 20.0761L49.9405 20.1733L50.0423 20.2381L50.1719 20.1733L50.0423 20.0761ZM50.0099 19.3864C50.0636 19.492 50.1288 19.5914 50.2043 19.6826C50.2379 19.7307 50.2821 19.7703 50.3335 19.7984C50.3848 19.8265 50.442 19.8423 50.5005 19.8446V19.715L50.0099 19.3864ZM50.2043 19.2243H50.1071L50.1719 19.2892L50.2043 19.2243ZM50.3339 20.1085L50.2691 20.0437L50.2229 20.1224L50.2877 20.1872L50.3339 20.1085ZM50.3663 18.9605H50.5005L50.8245 18.7337H50.6857L50.3663 18.9605ZM50.5978 20.0761L50.5005 20.1733L50.5978 20.2381L50.695 20.1733L50.5978 20.0761ZM50.9588 17.9467L50.8569 17.8495L50.7921 17.9143L50.8569 18.0115L50.9588 17.9467ZM50.894 12.5447L50.8245 12.5817L50.8569 12.6465L50.9264 12.5817L50.894 12.5447ZM50.9264 18.5624L50.8245 18.6318L50.9264 18.6966L51.0236 18.6318L50.9264 18.5624ZM51.2503 18.8262C51.0976 18.8262 51.0282 18.9003 51.0375 19.0531C51.0446 19.0833 51.0443 19.1148 51.0364 19.1448C51.0286 19.1748 51.0135 19.2025 50.9925 19.2253C50.9714 19.2482 50.9451 19.2655 50.9159 19.2759C50.8866 19.2862 50.8552 19.2891 50.8245 19.2845L50.9264 19.5113C50.962 19.4564 51.0098 19.4104 51.0659 19.3767C51.1221 19.343 51.1851 19.3226 51.2503 19.3169C51.2854 19.3135 51.3193 19.3031 51.3501 19.2861C51.381 19.2692 51.408 19.2462 51.4297 19.2185C51.4513 19.1908 51.4671 19.159 51.4761 19.1249C51.485 19.0909 51.487 19.0555 51.4818 19.0207L51.2503 18.8262ZM51.0236 10.5449L50.9264 10.6097L51.0236 10.744L51.1532 10.6097L51.0236 10.5449ZM51.0236 12.9011V13.0677L51.579 13.4936L51.0236 12.9011ZM51.2503 18.206L51.1208 18.1041L51.0236 18.206L51.1208 18.1041L51.2503 18.206ZM51.1208 19.8724L51.0236 19.9372L51.1208 20.002L51.2503 19.9372L51.1208 19.8724ZM51.1532 12.0031V12.3965L51.3476 12.2345L51.3152 12.3317L51.579 12.7252L51.5466 12.5956L51.6762 12.2345L51.1532 12.0031ZM51.6762 13.2483L51.579 13.3779L51.6762 13.4427L51.8058 13.3779L51.6762 13.2483ZM51.6762 16.4562L51.579 16.5534L51.6762 16.6182L51.8058 16.5534L51.6762 16.4562ZM51.7086 19.0068L51.6762 18.942L51.6114 18.9744L51.6762 19.0392L51.7086 19.0068ZM52.0048 19.5993C52.0048 19.553 51.9585 19.5206 51.8752 19.4975C51.8099 19.4808 51.7433 19.47 51.6762 19.4651V19.5993H52.0048ZM51.6762 20.252H51.8058V20.1548L51.6762 20.252ZM51.8428 17.3727L51.8058 17.3079L51.741 17.3403L51.8058 17.4051L51.8428 17.3727ZM51.9076 12.0725L51.8058 12.1373L51.9076 12.2021L52.0048 12.1373L51.9076 12.0725ZM51.9076 12.7576L51.8058 12.8224H52.0048L51.9076 12.7576ZM51.9076 13.4103L51.8058 13.4797H52.0048L51.9076 13.4103ZM51.9076 16.7154L51.8752 16.683L51.8058 16.7524L51.8428 16.8173L51.9076 16.7524V16.7154ZM51.94 17.7338L51.9724 17.7014L51.9076 17.632L51.8428 17.6644L51.9076 17.7338H51.94ZM52.1344 12.0725C52.1344 11.8966 52.0603 11.8086 51.9076 11.8086C51.9377 11.9435 52.019 12.0613 52.1344 12.1373V12.0725ZM51.9076 12.5632L52.0048 12.7252V12.5632H51.9076ZM52.1344 14.7851C52.0048 14.7851 51.9261 14.8314 51.9076 14.9193H52.1344V14.7851ZM52.0696 18.1226L52.0048 18.0578L51.94 18.1226L52.0048 18.1921L52.0696 18.1226ZM52.102 10.9569L52.0048 11.0865H52.2316L52.102 10.9569ZM52.0048 20.6779V20.8075L52.2316 20.5807L52.1344 20.4788L52.0048 20.6779ZM52.2316 14.262L52.1344 14.3592L52.2316 14.4287L52.3334 14.3592L52.2316 14.262ZM52.1344 16.2247H52.3334L52.2316 16.0951L52.1344 16.2247ZM52.1344 19.8261L52.463 19.9881C52.4144 19.8982 52.3711 19.8054 52.3334 19.7104C52.2917 19.6198 52.2219 19.5451 52.1344 19.4975L52.3334 19.8261H52.1344ZM52.301 11.8086L52.2316 11.7438L52.1668 11.7762L52.2316 11.8086H52.301ZM52.4306 9.95703L52.3334 10.0542L52.4306 10.1191L52.5602 10.0542L52.4306 9.95703ZM52.3334 14.1232V14.2204L52.463 14.1232H52.3334ZM52.3334 18.9327V18.9975L52.463 18.9327H52.3334ZM52.4954 20.1779H52.3982L52.463 20.2427L52.4954 20.1779ZM52.463 11.2439L52.5602 11.4059V11.2439H52.463ZM52.463 16.5441L52.5278 16.6089L52.6898 16.5441H52.463ZM52.6574 12.7483L52.5602 12.8131H52.7916L52.6574 12.7483ZM52.625 15.1693L52.5602 15.2341H52.6898L52.625 15.1693ZM52.6574 20.701L52.5602 20.7982L52.6574 20.863L52.7916 20.7982L52.6574 20.701ZM52.7916 10.4246L52.6898 10.4894L52.7916 10.5542L52.8888 10.4894L52.7916 10.4246ZM52.6898 11.0773L52.7916 11.1467V11.0773H52.6898ZM52.7916 13.7297L52.6898 13.7945H52.8888L52.7916 13.7297ZM52.7222 21.8444L52.6898 21.8768H52.7916L52.7222 21.8444ZM52.9999 12.253L52.8703 11.8596L52.7731 12.253L52.8703 12.1882L52.9999 12.253ZM52.8703 12.8409L52.7731 12.9057L52.8703 13.04L52.9999 12.9057L52.8703 12.8409ZM52.8703 17.1274L52.7731 17.2292L52.8703 17.294L52.9999 17.2292L52.8703 17.1274ZM52.8703 10.8458L52.8379 10.9106L52.9999 11.105V11.0402L52.8703 10.8458ZM52.8703 10.4199L53.0971 10.2903L52.9999 10.1885L52.8703 10.4199ZM52.9675 13.8223L52.8703 13.8871L52.9675 14.0213L53.0971 13.8871L52.9675 13.8223ZM52.9675 20.5344L52.8703 20.5992L52.9675 20.664L53.0971 20.5992L52.9675 20.5344ZM53.4303 10.6468L53.3331 10.781L53.236 10.7486L53.0045 10.8458L53.1017 10.9106L53.5276 10.781L53.4303 10.6468ZM53.1156 15.9563L53.0184 16.0211L53.1156 16.0859L53.2128 16.0211L53.1156 15.9563ZM53.1156 19.229L53.0184 19.2938L53.1156 19.3586L53.2128 19.2938L53.1156 19.229ZM53.1156 22.2702L53.0184 22.3351L53.1156 22.4693L53.2128 22.3351L53.1156 22.2702ZM53.2128 14.188L53.1156 14.2528L53.2128 14.7435L53.347 14.2528L53.2128 14.188ZM53.2128 10.8504C53.2042 10.8504 53.196 10.847 53.1899 10.8409C53.1838 10.8349 53.1804 10.8266 53.1804 10.818V10.7856V10.818C53.1804 10.818 53.2128 10.8227 53.2128 10.8643V10.8504ZM53.2128 20.9973L53.347 20.9602C53.307 20.9351 53.2599 20.9238 53.2128 20.9278V20.9973ZM53.4118 21.0621L53.3146 21.1269L53.2498 21.0945L53.347 21.2565L53.4442 21.1269L53.4118 21.0621ZM53.3794 16.2803H53.2822L53.347 16.3497L53.3794 16.2803ZM53.5414 10.2302L53.4442 10.295L53.5414 10.3922L53.6757 10.295L53.5414 10.2302ZM53.5414 14.549L53.509 14.5166L53.4627 14.5675H53.56L53.5414 14.549ZM53.4627 22.8998H53.56V22.8304L53.4627 22.8998ZM54.2172 24.2052L54.1848 24.1728L53.56 24.2422H54.2172V24.2052ZM53.6942 10.5264V10.6236L53.7914 10.5264H53.6942ZM53.6942 11.1837V11.443H53.7914V11.1837H53.6942ZM53.7914 12.1975L53.6942 12.2623L53.7914 12.3919L53.8886 12.2623L53.7914 12.1975ZM53.7914 22.2749L53.6942 22.3397L53.7914 22.4739L53.8886 22.3397L53.7914 22.2749ZM53.8886 11.7716L53.7914 11.8364L53.8886 11.9012L54.0182 11.8364L53.8886 11.7716ZM53.8562 12.8826L53.7914 12.915L53.8238 12.9798L53.8886 12.915L53.8562 12.8826ZM53.9858 11.5402L53.8886 11.605L53.9858 11.7392L54.1153 11.605L53.9858 11.5402ZM53.9858 22.3721L53.8886 22.5063H54.1153L53.9858 22.3721ZM53.8886 23.6173L54.3514 23.4229L54.12 23.2238L53.8886 23.6173ZM54.0506 12.8178L54.0182 12.753L53.9534 12.7854L54.0182 12.8502L54.0506 12.8178ZM54.2172 10.7903L54.1153 10.8551L54.2172 10.9199L54.3468 10.8551L54.2172 10.7903ZM54.1848 11.4754L54.3468 11.605L54.2172 11.443L54.1848 11.4754ZM54.282 13.2112L54.2172 13.2436L54.282 13.3085L54.3468 13.2436L54.282 13.2112ZM54.3468 12.1651L54.5412 12.3271V12.1003L54.3468 12.1651ZM54.5412 12.9474L54.444 13.0816L54.5412 13.1464L54.6754 13.0816L54.5412 12.9474ZM54.7726 10.8551L54.6754 10.9523L54.9994 11.1837L55.1012 11.1143L54.7726 10.8551ZM54.7726 11.2161L54.6754 11.2809L54.7726 11.4105L54.8698 11.2809L54.7726 11.2161ZM54.7078 21.6546V21.7518L54.7726 21.687L54.7078 21.6546ZM54.8698 12.5215L54.7726 12.591L54.8698 12.7206L54.9994 12.591L54.8698 12.5215ZM54.967 10.7903L54.8513 10.8643L54.9485 10.9291L55.0827 10.8643L54.967 10.7903ZM54.8698 14.2574V19.5252C54.8637 19.7916 54.9504 20.0518 55.1151 20.2612C55.2794 20.4715 55.4859 20.645 55.7214 20.7704C55.9689 20.9048 56.2336 21.0045 56.5083 21.0667C56.7645 21.1284 57.0269 21.161 57.2905 21.1639C57.5614 21.1618 57.8307 21.1229 58.0912 21.0482C58.3547 20.9783 58.6039 20.8623 58.8271 20.7056C59.0476 20.5507 59.2322 20.3502 59.3686 20.1178C59.5133 19.8693 59.5869 19.5859 59.5815 19.2984V14.2481L54.8698 14.2574ZM54.9994 23.4877L55.1012 23.6497L55.1984 23.4877H54.9994ZM54.9994 24.307L55.1012 24.5662V24.2885L54.9994 24.307ZM55.0318 25.0569V25.1541L55.1012 25.1217L55.0318 25.0569ZM55.1984 11.443L55.1012 11.5078L55.1984 12.1003L55.328 11.5078L55.1984 11.443ZM55.2956 22.8304L55.5548 23.2933L55.6566 23.2285L55.851 22.835L55.8186 22.7702L55.5224 23.0016V22.511L55.2956 22.8304ZM55.4252 23.9784C55.4252 24.0848 55.49 24.1404 55.6242 24.1404H55.6566L55.4252 23.9784ZM55.5224 12.1327C55.554 12.2845 55.6354 12.4214 55.7538 12.5215L55.851 12.3595L55.5224 12.1327ZM55.777 10.8643V10.7671L55.7122 10.8319L55.7446 10.8643H55.777ZM55.8418 24.4783H55.9066C55.9287 24.4812 55.9513 24.4791 55.9725 24.472C55.9937 24.465 56.0131 24.4532 56.0291 24.4376C56.0451 24.422 56.0574 24.403 56.065 24.382C56.0727 24.361 56.0755 24.3385 56.0732 24.3163H56.0361L55.8418 24.4783ZM56.0037 22.6776L55.9713 22.5804L55.9066 22.6452L55.9713 22.6776H56.0037ZM55.9713 11.517H56.0732V11.4522L55.9713 11.517ZM56.0732 12.6326L55.9713 12.7622L56.0732 12.827L56.1704 12.7622L56.0732 12.6326ZM56.0732 23.3673L55.9713 23.4969L56.0732 23.5617L56.1704 23.4969L56.0732 23.3673ZM56.3972 12.1095C56.3184 11.9908 56.2054 11.8988 56.0732 11.8457C56.1666 11.9412 56.2725 12.0237 56.3879 12.091L56.3972 12.1095ZM56.1704 23.6821L56.0732 23.8163L56.1704 23.8811L56.3 23.8163L56.1704 23.6821ZM56.1704 24.2422H56.3V24.1404L56.1704 24.2422ZM56.3 23.4877V23.6497L56.3972 23.5849L56.3 23.4877ZM57.1516 24.2422C57.0634 24.1165 56.9453 24.0147 56.8079 23.946C56.6705 23.8773 56.5183 23.8439 56.3648 23.8487L56.7258 24.2422L56.5962 24.469L57.1516 24.2422ZM56.5638 11.9012L56.499 11.4754C56.5083 11.5893 56.4842 11.7035 56.4296 11.804H56.3972V11.7716L56.5638 11.9012ZM56.6286 10.9523L56.7258 11.1143L56.9526 10.9523L56.7258 10.7903L56.6286 10.9523ZM56.7258 12.4567L56.6286 12.5215H56.823L56.7258 12.4567ZM56.823 23.159C56.7967 23.1116 56.764 23.068 56.7258 23.0294C56.6847 23.0654 56.6517 23.1095 56.6286 23.159H56.823ZM56.661 10.2672V10.3644L56.7258 10.2996L56.661 10.2672ZM56.9526 11.9336H56.8878L56.7258 12.1651L57.1516 12.4243L57.2812 12.1651L56.9526 11.804V11.9336ZM56.823 22.8304L56.7026 22.8998L56.7998 22.9646L56.9294 22.8998L56.823 22.8304ZM56.9202 23.5849L56.823 23.6497L56.7026 23.8256L56.7998 23.8904L56.9294 23.8256L57.0313 23.659L56.9202 23.5849ZM57.1516 11.1143C57.1087 11.1598 57.0515 11.1892 56.9896 11.1976C56.9315 11.2048 56.8752 11.222 56.823 11.2485L57.2858 11.1837L57.1516 11.1143ZM56.9526 23.7793L56.823 23.6821C56.86 23.6728 56.9017 23.7052 56.9433 23.7701L56.9526 23.7793ZM57.1516 10.1005L57.2812 10.2996V10.2672L57.1516 10.1005ZM57.1516 24.9597H57.3784L57.2812 24.7977L57.1516 24.9597ZM57.3784 13.114L57.2812 13.1788H57.4802L57.3784 13.114ZM57.4432 23.9459L57.2812 23.9784L57.4432 24.0432L57.6422 23.9784L57.4432 23.9459ZM57.6422 12.0632L57.4802 11.9336C57.4802 12.0447 57.5311 12.1003 57.6422 12.1003V12.0632ZM57.5774 22.71L57.4802 22.8396H57.707L57.5774 22.71ZM57.4802 24.4783L57.8042 24.8069L57.6283 24.2885L57.4802 24.4783ZM57.5774 11.517L57.6422 11.7809L57.8042 11.2902L57.707 11.193L57.5774 11.517ZM57.707 11.9429L58.0356 12.6326V11.9429H57.707ZM58.2948 11.0171C58.2902 10.8948 58.2517 10.7763 58.1837 10.6745C58.1523 10.619 58.1064 10.573 58.0511 10.5412C57.9957 10.5095 57.9328 10.4932 57.869 10.494C57.8748 10.6168 57.9149 10.7354 57.9847 10.8366C58.0162 10.8883 58.0603 10.9312 58.1129 10.9612C58.1656 10.9911 58.225 11.0072 58.2856 11.0078L58.2948 11.0171ZM58.0356 23.7469L57.9708 23.6497L57.9384 23.7145C57.9362 23.728 57.9371 23.7418 57.9411 23.7549C57.9451 23.7679 57.9521 23.7799 57.9616 23.7897C57.971 23.7996 57.9826 23.8072 57.9955 23.8118C58.0083 23.8164 58.0221 23.818 58.0356 23.8163V23.7469ZM58.1976 23.3905C58.1421 23.306 58.0769 23.2283 58.0032 23.159H57.9708C57.9708 23.187 57.9765 23.2146 57.9875 23.2403C57.9986 23.266 58.0149 23.2891 58.0353 23.3082C58.0557 23.3273 58.0798 23.342 58.1062 23.3514C58.1325 23.3607 58.1605 23.3646 58.1884 23.3627L58.1976 23.3905ZM58.0356 11.605C58.1005 11.6885 58.1919 11.7473 58.2948 11.7716V11.605H58.0356ZM58.4614 23.6404H58.3272C58.332 23.7591 58.3723 23.8736 58.4429 23.9691C58.5126 24.0676 58.5951 24.1563 58.6882 24.233V24.1635L58.4614 23.6404ZM58.429 11.1745H58.3596L58.6234 11.4337L58.6882 11.2717L58.429 11.1745ZM58.8919 10.1561C58.9029 10.1795 58.9086 10.2051 58.9086 10.2311C58.9086 10.257 58.9029 10.2826 58.8918 10.306C58.8808 10.3295 58.8647 10.3502 58.8447 10.3667C58.8247 10.3832 58.8013 10.395 58.7762 10.4014C58.676 10.4482 58.5724 10.4869 58.4661 10.5171L59.2807 10.4199L58.8919 10.1561ZM58.554 22.9553L58.6188 22.9877L58.7808 22.8905L58.6836 22.8211L58.554 22.9553ZM58.9474 11.1745L58.8132 10.781L58.6836 11.1745L58.8132 11.105L58.9474 11.1745ZM58.8132 23.0201L58.6836 23.1498H58.9474L58.8132 23.0201ZM59.1418 11.105L59.0122 11.1745L59.1418 11.2393L59.2714 11.1745L59.1418 11.105ZM59.0122 12.5817V12.7437H59.1094V12.5817H59.0122ZM59.239 12.4475L59.1094 12.5123H59.3733L59.239 12.4475ZM59.239 22.1684L59.1094 22.2332L59.1418 22.298L59.3733 22.2332L59.239 22.1684ZM59.2714 22.5295L59.1742 22.4647L59.1094 22.4971L59.2066 22.5943L59.2714 22.5619V22.5295ZM59.4704 21.8721L59.4057 21.8073L59.3408 21.8721L59.4057 21.9416L59.4704 21.8721ZM59.9333 10.943C59.7269 10.9536 59.5307 11.0354 59.3779 11.1745L59.7019 11.3041L60.0305 10.943H59.9333ZM59.4704 24.557L59.3733 24.6218L59.4704 24.756L59.6 24.6218L59.4704 24.557ZM59.5676 10.4523L59.438 10.5171L59.5676 10.582L59.6972 10.5171L59.5676 10.4523ZM59.438 23.1498C59.481 23.2151 59.536 23.2716 59.6 23.3164V23.1498H59.438ZM59.6972 23.9691C59.6177 23.926 59.5285 23.9037 59.438 23.9043V23.9691H59.6972ZM59.6972 12.1882C59.6987 12.1751 59.6972 12.1618 59.6928 12.1494C59.6885 12.1369 59.6814 12.1256 59.672 12.1162C59.6627 12.1069 59.6514 12.0998 59.6389 12.0954C59.6264 12.091 59.6132 12.0895 59.6 12.091L59.6972 12.253V12.1882ZM59.9286 24.1311C59.8642 24.177 59.8079 24.2334 59.762 24.2978H59.9425L59.9286 24.1311ZM60.6785 11.8272C60.652 11.7563 60.6106 11.6919 60.5571 11.6383C60.5036 11.5848 60.4392 11.5435 60.3683 11.517C60.2284 11.4615 60.0792 11.4332 59.9286 11.4337L60.6785 11.8272ZM60.0907 12.253C60.0257 12.2949 59.9705 12.3501 59.9286 12.4151H60.0907V12.253ZM59.9425 22.2332L60.2712 22.3304L60.0721 22.1036L59.9425 22.2332ZM59.9425 22.8211V22.8998H60.0397V22.8304L59.9425 22.8211ZM60.3359 20.7288L60.2712 20.826C60.2712 20.826 60.2943 20.863 60.2712 20.8769C60.248 20.8908 60.2434 20.8769 60.2202 20.8769L60.0907 20.9417L60.2202 21.0111L60.3545 20.9417C60.3545 20.9417 60.3545 20.9001 60.3545 20.8769C60.3711 20.8582 60.3943 20.8465 60.4193 20.8445L60.3359 20.7288ZM60.2341 21.9416L60.1045 22.0064L60.2341 22.136L60.3683 22.0064L60.2341 21.9416ZM60.3036 10.582L60.2712 10.5171L60.2017 10.582L60.2712 10.6144L60.3036 10.582ZM60.2017 23.4136L60.4331 23.8071L60.6923 23.608L60.2017 23.4136ZM60.3683 20.8908C60.3406 20.8691 60.3063 20.8577 60.2712 20.8584L60.3683 20.8908ZM60.3683 9.96167V10.0913H60.5951L60.3683 9.96167ZM60.4656 13.4982L60.3683 13.563L60.4656 13.6927L60.5951 13.563L60.4656 13.4982ZM60.5628 12.3502L60.4331 12.4151H60.6923L60.5628 12.3502ZM60.5628 22.6915L60.4331 22.8211H60.6923L60.5628 22.6915ZM60.6599 20.6316L60.5951 20.6964L60.6599 20.7936L60.7618 20.6964L60.6599 20.6316ZM60.6599 21.6129L60.5951 21.6777L60.6599 21.8073L60.7618 21.6777L60.6599 21.6129ZM60.7618 10.7162C60.7415 10.7315 60.7249 10.751 60.7129 10.7734C60.7009 10.7958 60.6939 10.8205 60.6923 10.8458L60.7618 10.781V10.7162ZM60.6923 11.1791L61.021 11.4383L61.0534 11.2763L60.7618 11.1097L60.6923 11.1791ZM60.8914 20.7334L60.7618 20.8306L60.8914 20.8954L61.021 20.8306L60.8914 20.7334ZM61.0857 22.2378C61.0441 22.3675 60.9932 22.4971 60.9423 22.6174C60.8914 22.7378 60.8266 22.8489 60.7618 22.96C60.8821 22.9542 60.9966 22.9068 61.0857 22.8257C61.1376 22.7892 61.1798 22.7406 61.2088 22.6842C61.2378 22.6277 61.2528 22.5651 61.2524 22.5017L61.0857 22.2378ZM61.1181 17.0348L61.021 17.0996L61.1181 17.1968L61.2524 17.0996L61.1181 17.0348ZM61.1181 18.2476L61.021 18.3124L61.1181 18.3772L61.2524 18.3124L61.1181 18.2476ZM61.1181 20.6362L61.021 20.701L61.1181 20.7982L61.2524 20.701L61.1181 20.6362ZM61.0857 19.8493L61.382 20.2427L61.3496 20.3723L61.5764 19.9465L61.2524 19.7197L61.0857 19.8493ZM61.3496 12.6187L61.2524 12.7483L61.3496 12.8131L61.4468 12.7483L61.3496 12.6187ZM61.2524 13.8269L61.382 13.9241L61.5764 13.8269H61.2524ZM61.4792 19.1642C61.4339 19.1639 61.3893 19.175 61.3496 19.1966C61.3274 19.2049 61.3073 19.2179 61.2905 19.2347C61.2737 19.2514 61.2607 19.2716 61.2524 19.2938L61.3496 19.391C61.3906 19.3685 61.4243 19.3348 61.4468 19.2938C61.4622 19.2508 61.467 19.2048 61.4607 19.1595L61.4792 19.1642ZM61.5764 12.2577L61.4468 12.5169L61.6782 12.2577H61.5764ZM61.544 14.6138L61.4468 14.711L61.544 14.7759L61.6782 14.711L61.544 14.6138ZM61.4468 21.9092L61.5764 22.173L61.6782 21.9092H61.4468ZM61.6088 23.2979L61.5764 23.2331L61.5116 23.2979L61.5764 23.3349L61.6088 23.2979ZM61.7754 15.6091C61.6875 15.5211 61.6227 15.4795 61.5764 15.4795V15.6091H61.7754ZM61.7106 20.8445C61.6809 20.761 61.6353 20.684 61.5764 20.6177V20.8445H61.7106ZM61.7754 11.8781L61.6782 11.9429L61.7754 12.0725L61.905 11.9429L61.7754 11.8781ZM61.6782 22.6776H61.905V22.5804L61.6782 22.6776ZM61.8726 13.4473L61.7754 13.5168H62.0022L61.8726 13.4473ZM61.7754 19.3077C61.7754 19.59 61.905 19.7335 62.1688 19.7335H62.2336L61.905 19.3077H61.7754ZM62.0022 12.6326L61.905 12.7622L62.0022 12.827L62.0994 12.7622L62.0022 12.6326ZM61.905 14.2667V14.3963L62.0994 14.1694L62.0022 14.0722L61.905 14.2667ZM61.9374 15.0536H61.905C62.026 15.1111 62.1369 15.1877 62.2336 15.2804L62.0994 14.9564L61.9374 15.0536ZM61.905 20.6084L62.0022 20.7056V20.5853L61.905 20.6084ZM61.905 21.0343L62.0022 21.1639L62.2336 21.0343H61.905ZM62.0994 21.3907L62.0022 21.4926L62.0994 21.5574L62.2336 21.4926L62.0994 21.3907ZM62.0994 18.2198L62.2336 18.3171V18.0856L62.0994 18.2198ZM62.0994 20.5066H62.1688C62.2753 20.5066 62.3308 20.4649 62.3308 20.377H62.2567L62.0994 20.5066ZM62.3632 19.1688L62.2336 19.067L62.2012 19.1364L62.3308 19.2012L62.3632 19.1688ZM62.2336 13.5723V13.8315L62.428 13.5723H62.2336ZM62.5946 16.1229C62.5227 16.1259 62.4513 16.1367 62.3817 16.1553C62.3404 16.1588 62.302 16.1781 62.2744 16.2091C62.2469 16.2401 62.2323 16.2805 62.2336 16.3219V16.3544C62.3015 16.3227 62.373 16.2994 62.4465 16.2849C62.4858 16.2781 62.521 16.2566 62.5451 16.2248C62.5691 16.193 62.5802 16.1533 62.5761 16.1136L62.5946 16.1229ZM62.428 20.0853L62.3308 20.1826L62.428 20.738L62.5576 20.1826L62.428 20.0853ZM62.3308 21.4741V21.5713H62.7196V21.4741H62.3308ZM62.7566 20.8167C62.7206 20.7603 62.6692 20.7153 62.6085 20.6871C62.5456 20.66 62.4852 20.6275 62.428 20.5899L62.5576 20.9139L62.7566 20.8167ZM62.4928 22.2054L62.428 22.2378H62.5576L62.4928 22.2054ZM62.6594 10.6329L62.5576 10.7995H62.8862L62.6594 10.6329ZM62.5391 18.7337H62.7196V18.5346L62.5391 18.7337ZM62.7381 12.4799L62.6733 12.3826L62.6085 12.4475L62.7381 12.5123V12.4799ZM62.8677 13.8686L62.7381 13.8038L62.6409 13.8686L62.7381 13.8038L62.8677 13.8686ZM62.7196 14.1046L62.6224 14.1694L62.7196 14.2343L62.8492 14.1694L62.7196 14.1046ZM62.8168 12.304L62.7196 12.4336L62.8168 12.4984L62.9464 12.4336L62.8168 12.304ZM62.8492 13.2298L62.7196 13.2622L62.8168 13.327L62.9464 13.2622L62.8492 13.2298ZM62.8168 18.1365L62.7196 18.2384L62.8168 18.3032L62.9464 18.2384L62.8168 18.1365ZM62.8168 19.678L62.7196 19.7428L62.8168 19.84L62.9464 19.7428L62.8168 19.678ZM62.8492 20.3955H62.9464V20.2983L62.8492 20.3955ZM63.1454 14.7666L63.0482 14.8314L63.1454 14.9332L63.275 14.8314L63.1454 14.7666ZM63.0482 15.6183L63.1778 15.7155V15.6183H63.0482ZM63.0482 18.6642V18.8911H63.1824L63.0482 18.6642Z" fill="#7E97A5"/>
<path d="M61.9429 58.928C62.0434 58.9807 62.1367 59.046 62.2206 59.1224C62.266 59.1574 62.303 59.2022 62.3286 59.2535C62.3543 59.3048 62.368 59.3613 62.3687 59.4187V63.3441C62.3679 63.4236 62.3466 63.5016 62.3068 63.5705C62.2671 63.6395 62.2103 63.697 62.1419 63.7375C62.0209 63.8363 61.872 63.8946 61.7161 63.9042H47.2708L46.6182 63.4413V59.3168L46.9422 58.9234H51.6215L51.8205 58.7613V41.3516L52.3759 40.8887H56.4674L57.1525 41.4488V58.9234L61.9429 58.928ZM47.6966 61.3953L47.7614 61.6591L47.7938 61.3953L47.729 61.4601L47.6966 61.4277V61.3953ZM48.5806 61.7239C48.5408 61.6419 48.484 61.5694 48.414 61.511C48.3492 61.4554 48.2844 61.3952 48.2196 61.3304L48.3816 61.8535L48.5806 61.7239ZM49.0064 61.298V61.3953L49.0388 61.2332L49.0064 61.298ZM49.2332 61.4971H49.1036C49.1428 61.5749 49.186 61.6506 49.2332 61.7239V61.4971ZM49.4646 60.8398L49.497 60.8074L49.4646 60.7426L49.4322 60.8398H49.4646ZM49.4646 62.8025L49.497 62.7701L49.4322 62.7053V62.784L49.4646 62.8025ZM49.6266 61.1684L49.5618 61.0712L49.4646 61.1684L49.5618 61.298L49.6266 61.1684ZM49.6914 61.3628L49.659 61.298V61.3953L49.6914 61.3628ZM49.9552 60.5111L49.8905 60.4139L49.7886 60.5111L49.8905 60.6454L49.9552 60.5111ZM50.1821 60.7426L50.0848 60.6454L50.02 60.7426L50.0848 60.8398L50.1821 60.7426ZM50.6449 62.085C50.6474 62.0367 50.6401 61.9884 50.6234 61.9431C50.6067 61.8977 50.5809 61.8562 50.5477 61.8211L50.4181 61.9507L50.6449 62.085ZM50.6449 60.4787H50.5477L50.6449 60.6454V60.4787ZM50.7097 62.6405V62.5433L50.6449 62.6081L50.7097 62.6405ZM51.2003 60.4787L51.1679 60.6454L51.3021 60.9694L51.4317 60.775L51.2003 60.4787ZM51.6909 61.2656L51.6261 61.1684L51.5613 61.2656L51.6261 61.3953L51.6909 61.2656ZM51.9547 60.3167L51.8575 60.4463L51.9547 60.4139V60.3167ZM52.0195 62.5433V62.409L51.9547 62.4738L52.0195 62.5433ZM52.5749 62.0526L52.5101 61.9507L52.4129 62.0526L52.5101 62.1498L52.5749 62.0526ZM53.5006 42.3514H53.371L52.5842 42.5459H53.5099L53.5006 42.3514ZM52.686 60.1408L52.5842 60.3028H52.686V60.1408ZM52.7832 60.9231L52.686 60.8259L52.6166 60.9231L52.686 61.0573L52.7832 60.9231ZM52.8156 62.4599L52.686 62.5942H52.8156V62.4599ZM52.848 49.1098L52.9452 49.045L52.8804 48.9802L52.8156 49.0774L52.848 49.1098ZM52.9776 42.7588L52.9128 42.6616L52.848 42.7588L52.9128 42.8606L52.9776 42.7588ZM53.3062 55.4608L53.2414 55.359L52.9776 55.4608L53.2414 55.5581L53.3062 55.4608ZM53.0748 48.0544L53.1442 48.022L53.0748 47.9572L53.01 48.022L53.0748 48.0544ZM53.01 51.5215C53.0812 51.5193 53.1502 51.4968 53.209 51.4567C53.238 51.4406 53.2622 51.4171 53.2792 51.3887C53.2963 51.3603 53.3056 51.3279 53.3062 51.2947H53.01V51.5215ZM53.209 48.9709L53.1489 48.8969L53.0471 48.9617L53.1489 49.0589L53.209 48.9709ZM53.209 55.2201L53.1442 55.1229L53.0424 55.2201L53.1442 55.3497L53.209 55.2201ZM53.1072 47.3971C53.1471 47.4032 53.1879 47.4 53.2263 47.3876C53.2647 47.3752 53.2997 47.3539 53.3285 47.3256C53.3573 47.2973 53.379 47.2626 53.392 47.2244C53.405 47.1862 53.4089 47.1455 53.4034 47.1055L53.3386 47.0082C53.2853 47.0635 53.2359 47.1222 53.1905 47.1841C53.1544 47.2523 53.1399 47.3298 53.1489 47.4063L53.1072 47.3971ZM53.3062 43.4069L53.2414 43.3096L53.1766 43.4069L53.2414 43.5041L53.3062 43.4069ZM53.3386 44.0595C53.4083 44.0572 53.4759 44.0347 53.533 43.9947C53.5625 43.9788 53.5874 43.9555 53.6052 43.9271C53.6231 43.8987 53.6333 43.8662 53.6348 43.8327H53.3386V44.0595ZM53.4682 50.6374H53.3386V50.7485H53.4682V50.6374ZM53.3386 62.5849L54.0931 62.4507L53.3386 62.3535L53.4358 62.4507L53.3386 62.5849ZM53.5654 45.4575C53.535 45.4779 53.5094 45.5045 53.4902 45.5357C53.471 45.5668 53.4588 45.6017 53.4543 45.638C53.448 45.7089 53.448 45.7802 53.4543 45.851L53.6857 45.689L53.5654 45.4575ZM53.7969 46.3417L53.5654 46.4713L53.7969 46.6703L53.894 46.5407L53.7969 46.3417ZM53.732 49.2209L53.6672 49.0589C53.6211 49.1013 53.5916 49.1587 53.5839 49.2209C53.5804 49.2764 53.5804 49.3321 53.5839 49.3876L53.732 49.2209ZM53.6672 50.2023H53.5654V50.3041H53.6672V50.2023ZM53.6672 53.0538H53.5654L53.6672 53.2482V53.0538ZM53.7969 54.3267V54.2295L53.5654 54.4563H53.6348L53.7969 54.3267ZM53.6672 59.7288H53.5654V59.7936L53.6672 59.7288ZM53.7645 60.8074L53.6672 60.7102L53.5978 60.8074L53.6672 60.937L53.7645 60.8074ZM53.8616 49.7486L53.7969 49.6468L53.6996 49.7486L53.7969 49.8782L53.8616 49.7486ZM54.0236 44.2169L54.2227 44.1799L54.0236 44.1151L53.7969 44.1475L54.0236 44.2169ZM53.8292 44.74L54.3199 44.7076H53.7969L53.8292 44.74ZM53.9264 48.5682L53.8616 48.5358L53.7969 48.6654L53.9264 48.5682ZM53.7969 53.3778V53.674L53.894 53.5444L53.7969 53.3778ZM53.8292 62.2794L53.894 62.247L53.8616 62.1822L53.7969 62.247L53.8292 62.2794ZM53.9588 60.5805L53.894 60.4463L53.8292 60.5805L53.894 60.7102L53.9588 60.5805ZM54.1255 47.6841L53.894 47.7489C54.0236 47.772 54.0931 47.8183 54.0931 47.897C54.0948 47.9364 54.1081 47.9745 54.1311 48.0065C54.1541 48.0386 54.1859 48.0632 54.2227 48.0775L54.3846 47.8137L54.1255 47.6841ZM53.9912 57.3402L53.894 57.405H53.9912V57.3402ZM54.0931 43.8235L53.9912 43.7263L53.9264 43.8235L53.9912 43.9531L54.0931 43.8235ZM54.0931 52.4936L53.9912 52.3964L53.9264 52.4936L53.9912 52.5955L54.0931 52.4936ZM53.9912 50.7948L54.1255 51.054L54.2227 50.9568L53.9912 50.7948ZM54.5189 58.9419L54.4494 58.8123L54.0236 58.9419L54.4494 59.0715L54.5189 58.9419ZM54.3846 57.7291C54.3877 57.6934 54.3801 57.6577 54.3628 57.6263C54.3455 57.595 54.3193 57.5696 54.2875 57.5532C54.2275 57.5213 54.1609 57.5038 54.0931 57.5022C54.0897 57.5386 54.0971 57.5751 54.1144 57.6072C54.1317 57.6393 54.1581 57.6656 54.1903 57.6828C54.2542 57.7229 54.3277 57.7452 54.4032 57.7476L54.3846 57.7291ZM54.2227 46.2769C54.2858 46.2338 54.3317 46.1699 54.3522 46.0963C54.3736 46.0274 54.3845 45.9556 54.3846 45.8834L54.1255 46.1148L54.2227 46.2769ZM54.2088 53.9888L54.144 53.924V54.0582L54.2088 53.9888ZM54.468 43.0921H54.2412V43.3235H54.468V43.0921ZM54.3384 52.7482H54.2412L54.3384 52.8454V52.7482ZM54.3384 58.0161H54.2412V58.0809L54.3384 58.0161ZM54.306 59.4881C54.3067 59.4794 54.3055 59.4707 54.3025 59.4625C54.2995 59.4543 54.2947 59.4469 54.2885 59.4407C54.2824 59.4346 54.2749 59.4298 54.2668 59.4268C54.2586 59.4238 54.2499 59.4226 54.2412 59.4233V59.4881H54.306ZM54.306 61.6498L54.3708 61.6175L54.306 61.5526L54.2412 61.6175L54.306 61.6498ZM54.4356 44.828L54.3384 44.7308L54.2736 44.828L54.3384 44.9576L54.4356 44.828ZM54.7318 49.9199H54.3384L54.5374 50.1467L54.7318 49.9199ZM54.4032 56.2987L54.3384 56.2339V56.3635L54.4032 56.2987ZM54.5374 53.5213L54.468 53.4241L54.3708 53.5213L54.468 53.6231L54.5374 53.5213ZM54.5374 54.8313L54.468 54.7341L54.3708 54.8313L54.468 54.9285L54.5374 54.8313ZM54.5374 55.9145L54.468 55.8127L54.3708 55.9145L54.468 56.0441L54.5374 55.9145ZM54.5374 56.7292H54.4356L54.468 56.794L54.5374 56.7292ZM54.7966 55.3868L54.468 55.7154H54.5374L54.7966 55.3868ZM54.6346 48.7765C54.6353 48.7678 54.6341 48.7591 54.6311 48.7509C54.6281 48.7427 54.6233 48.7353 54.6172 48.7292C54.611 48.723 54.6036 48.7182 54.5954 48.7152C54.5872 48.7122 54.5785 48.711 54.5698 48.7117V48.7765H54.6346ZM54.7318 46.9758V46.9434L54.6346 47.0082L54.667 47.0453L54.7318 46.9758ZM54.7966 44.0642L54.9586 44.0966L54.667 43.8698L54.7966 44.0642ZM54.7966 47.4665L54.667 47.6332H54.7966V47.4665ZM54.667 50.8411V51.1327L54.8938 51.0031L54.667 50.8411ZM54.8614 42.8791L54.7966 42.7773L54.6994 42.8791L54.7966 43.0088L54.8614 42.8791ZM54.9586 45.8556L54.8938 45.726L54.829 45.8556L54.8938 45.9852L54.9586 45.8556ZM54.9586 48.0174L54.8938 47.9526L54.829 48.0174L54.8938 48.1146L54.9586 48.0174ZM54.8938 48.7673V48.8969H55.0002L54.8938 48.7673ZM55.1252 55.8034L54.991 55.7062L54.9262 55.8034L54.991 55.9052L55.1252 55.8034ZM55.1252 61.2703L54.991 61.1731L54.9262 61.2703L54.991 61.3999L55.1252 61.2703ZM55.1576 46.3787H55.0002V46.4759H55.1668L55.1576 46.3787ZM55.2224 60.2889L55.1576 60.1593L55.0234 60.2889L55.1576 60.4185L55.2224 60.2889ZM55.19 61.7933L55.1576 61.7285L55.0928 61.7933L55.1576 61.8258L55.19 61.7933ZM55.2548 53.3176L55.2224 53.2852L55.1252 53.35L55.1576 53.4148L55.2548 53.3176ZM55.2224 43.4346H55.1576V43.5318H55.2224V43.4346ZM55.2224 52.8593L55.1576 52.9565L55.2224 53.0908V52.8593ZM55.2224 58.03L55.1576 58.0948H55.2224V58.03ZM55.2872 45.2677L55.2224 45.1705V45.3973L55.2872 45.2677ZM55.4631 55.6553C55.3822 55.5969 55.3063 55.5319 55.2363 55.4608V55.6877L55.3335 55.7849L55.4631 55.6553ZM55.2687 55.6877L55.3011 55.5581C55.3034 55.6057 55.2867 55.6523 55.2548 55.6877H55.2687ZM55.4955 43.9716H55.3335V44.0688H55.4631L55.4955 43.9716ZM55.6297 42.6292L55.4631 42.4162L55.3335 42.5135L55.4631 42.6431L55.5001 42.6107L55.5325 42.7403L55.6297 42.6292ZM55.5325 42.6292C55.5542 42.6015 55.5656 42.5671 55.5649 42.532L55.5325 42.6292ZM55.7917 52.1881L55.6621 52.0863L55.5973 52.1881L55.6621 52.2853L55.7917 52.1881ZM55.8889 60.3028L55.8241 60.1732C55.8164 60.2542 55.8396 60.3352 55.8889 60.4V60.3028ZM55.9583 44.9853H55.8565L55.8889 45.0502L55.9583 44.9853ZM55.9583 43.5966L55.8889 43.4994V43.7309L55.9583 43.5966ZM55.9907 62.2516C56.0972 62.2516 56.1527 62.1729 56.1527 62.0248C56.0277 62.0387 55.9768 62.1128 55.9768 62.2655L55.9907 62.2516ZM56.3471 61.4693L56.3795 61.4323L56.3147 61.3675V61.4693H56.3471ZM56.7081 60.2889L56.5461 60.1269V60.3861L56.7081 60.2889ZM56.8701 60.812L56.8053 60.7148L56.7405 60.812L56.8053 60.9416L56.8701 60.812ZM56.8377 62.5155L56.8053 62.446L56.7405 62.5155L56.8053 62.5803L56.8377 62.5155ZM57.0691 61.4323L57.0368 61.3675L56.9719 61.4323L57.0368 61.4693L57.0691 61.4323ZM57.3654 60.4509H57.2311V60.6176L57.3654 60.4509ZM57.2635 62.0248L57.2959 61.9924L57.2311 61.923V62.0248H57.2635ZM59.3602 60.4185L59.425 60.3861L59.3602 60.3213L59.3278 60.3861L59.3602 60.4185ZM60.309 61.3675L60.1794 61.4323L60.309 61.4693V61.3675ZM60.3738 61.7933L60.309 61.6961L60.2118 61.7933L60.309 61.923L60.3738 61.7933ZM60.3414 60.7472L60.4062 60.7148L60.3414 60.65L60.309 60.7148L60.3414 60.7472ZM60.5034 61.7933L60.4062 61.923H60.5034V61.7933ZM60.7025 60.5157L60.633 60.4509L60.5682 60.5528L60.633 60.6176L60.7025 60.5157Z" fill="#DC1A1A"/>
<path d="M28.8582 43.5733V47.8274L28.2796 48.4338H20.0642V57.5298H28.3953C28.4991 57.5861 28.5968 57.6527 28.6869 57.7289C28.736 57.7606 28.7767 57.8037 28.8057 57.8544C28.8347 57.9052 28.8511 57.9621 28.8535 58.0205V62.3209L28.3907 62.7468H6.26685L5.94286 62.4227V57.9048L6.26685 57.5437H15.0609V48.4338H6.48901L5.93359 47.9431V43.5733L6.39644 43.1475H28.3953L28.8582 43.5733ZM6.93335 46.7488L7.25734 47.0775L7.48876 46.9803L6.93335 46.7488ZM7.25734 44.3603L7.16014 44.2631L7.06293 44.3603L7.16014 44.2631L7.25734 44.3603ZM7.06293 45.212H7.16014V45.1148L7.06293 45.212ZM7.25734 46.0962L7.16014 46.0313L7.06293 46.0962L7.16014 46.0313L7.25734 46.0962ZM9.10871 46.7488C9.17857 46.7235 9.24251 46.6841 9.29663 46.6332C9.35075 46.5822 9.39389 46.5208 9.42344 46.4526C9.4975 46.2998 9.55767 46.1702 9.59932 46.0638L9.53452 45.8647L9.43731 45.9943L9.10871 45.8647L8.88192 46.0962L9.21052 46.4202L8.5533 45.9943C8.5533 45.9295 8.60883 45.8786 8.71991 45.8323C8.84613 45.7832 8.97617 45.7445 9.10871 45.7166C9.26158 45.6859 9.41613 45.6642 9.57155 45.6518H9.84925C9.8496 45.5987 9.83612 45.5465 9.81015 45.5002C9.78418 45.4539 9.74661 45.4153 9.70114 45.3879C9.65603 45.3613 9.61866 45.3234 9.59269 45.278C9.56671 45.2325 9.55302 45.181 9.55302 45.1287H9.39104L9.35864 44.9945L9.45584 44.8972L9.75204 45.013L10.0436 45.1287L9.55302 44.6658L9.42344 44.763L9.39104 44.6982L9.48825 44.564H9.41881L9.09018 44.6982L8.86339 44.564L8.993 44.7954L8.8958 44.8926C8.95434 44.9002 9.01018 44.9218 9.05854 44.9557C9.1069 44.9895 9.14633 45.0346 9.17349 45.087C9.22646 45.1886 9.25501 45.3011 9.25683 45.4157L9.19202 45.5453L9.09018 45.2213L8.43759 44.564L8.2108 44.6982L8.67364 45.4157C8.67364 45.4157 8.6042 45.3879 8.5394 45.4157C8.4746 45.4435 8.44222 45.4435 8.44222 45.462L8.5394 45.5268L8.67364 45.462L8.5718 45.6934L8.10896 45.462L8.01178 45.5592C7.96943 45.4314 7.89057 45.3187 7.78496 45.2352C7.6779 45.1501 7.59756 45.036 7.55354 44.9065L7.88217 45.1379C7.88144 45.0265 7.86429 44.9157 7.83126 44.8093C7.8 44.7026 7.78439 44.5918 7.78496 44.4806H8.17376L7.35916 44.152L7.55354 44.4806C7.48487 44.5139 7.4137 44.5418 7.34065 44.564C7.27222 44.5908 7.19617 44.5908 7.12773 44.564L7.35916 44.8926H7.12773L7.55354 45.3185L7.45636 45.4481L7.35916 45.3509C7.36243 45.566 7.38881 45.7802 7.43783 45.9897C7.46333 46.1003 7.52082 46.201 7.60312 46.2792C7.68542 46.3574 7.7889 46.4096 7.90067 46.4295L7.80349 46.235L7.8683 45.874L7.93308 45.9064L8.03028 45.7768C8.20551 45.95 8.39779 46.1051 8.6042 46.2397C8.70754 46.2993 8.79352 46.3849 8.85359 46.4881C8.91366 46.5912 8.94575 46.7082 8.9467 46.8275L9.10871 46.7627L9.24293 46.8275L9.37254 46.7627L9.30773 46.6331L9.10871 46.7488ZM7.17864 45.7675L7.14627 45.6703V45.7675H7.17864ZM7.66925 44.8417L7.57207 44.7769L7.66925 44.7121L7.80349 44.7769L7.66925 44.8417ZM7.90067 45.4296C7.85778 45.4508 7.81869 45.479 7.78496 45.5129L7.66925 45.6286L7.57207 45.5268L7.66925 45.462C7.66925 45.462 7.71093 45.4897 7.72019 45.462C7.72944 45.4342 7.72019 45.4342 7.72019 45.4111L7.822 45.3462L7.90067 45.4296ZM7.80349 47.0034L7.70165 47.0682L7.80349 47.1331L7.90067 47.0682L7.80349 47.0034ZM7.99788 59.8953L7.90067 60.0249H8.12749L7.99788 59.8953ZM8.06268 47.0682L8.03028 46.971L7.96548 47.0034L8.03028 47.0682H8.06268ZM8.06268 44.7537L8.03028 44.7861H8.12749L8.06268 44.7537ZM8.12749 44.9158L8.03028 45.013L8.12749 45.0778L8.2293 45.013L8.12749 44.9158ZM8.35891 46.7674C8.29411 46.8322 8.23855 46.8553 8.19227 46.8322L8.29411 47.1608L8.68751 46.9988L8.12749 46.4387L8.03028 46.5405L8.12749 46.735L8.19227 46.7026L8.35891 46.7674ZM8.68751 46.6702C8.69613 46.5991 8.67955 46.5273 8.64064 46.4672C8.60173 46.4072 8.54298 46.3627 8.47462 46.3415C8.33851 46.303 8.2174 46.2239 8.12749 46.1147V46.2119L8.68751 46.7674V46.6702ZM8.22467 45.786V45.6564H8.35428L8.22467 45.786ZM8.38668 59.3028V59.4L8.45146 59.3676L8.38668 59.3028ZM8.95597 45.6564L8.85876 45.5546L8.95597 45.4898L9.08558 45.5546L8.95597 45.6564ZM9.25219 46.1471L9.18739 46.1147L9.25219 46.0823L9.34937 46.1147L9.25219 46.1471ZM9.41418 44.2955L9.34937 44.3927L9.41418 44.4575L9.51138 44.3927L9.41418 44.2955ZM9.61319 46.485L9.51138 46.5544L9.61319 46.6516L9.7428 46.5544L9.61319 46.485ZM9.61319 47.0451L9.51138 47.1099L9.61319 47.1747L9.7428 47.1099L9.61319 47.0451ZM9.7104 44.4251H9.61319L9.678 44.4899L9.7104 44.4251ZM9.7428 45.8138L9.678 45.8786L9.7428 45.9758L9.83998 45.8786L9.7428 45.8138ZM9.7428 44.7028L10.002 44.8324V44.7028H10.0714V44.439L9.7428 44.7028ZM9.7428 46.7627L9.83998 46.8599V46.7627H9.7428ZM9.83998 46.3369L10.002 46.5359L10.0714 46.3369L10.002 46.2073L9.83998 46.3369ZM10.0714 45.0269L10.1686 45.1287V45.0269H10.0714ZM10.1686 46.5359L10.0714 46.6655H10.3954L10.1686 46.5359ZM10.5296 44.4066L10.3954 44.4714L10.5296 44.5362L10.6592 44.4714L10.5296 44.4066ZM10.6592 44.7028C10.6592 44.6565 10.6268 44.638 10.562 44.638L10.4972 44.7028H10.6592ZM10.562 45.0917L10.4972 45.1287H10.6592L10.562 45.0917ZM10.9184 44.4714C10.8812 44.4739 10.8449 44.4838 10.8115 44.5005C10.7781 44.5172 10.7484 44.5403 10.724 44.5686L10.7888 44.601C10.8489 44.5489 10.9159 44.5053 10.9879 44.4714H10.9184ZM10.8536 44.9343L10.724 45.0315L10.8536 45.0963L10.9879 45.0315L10.8536 44.9343ZM10.8536 59.7471L10.724 59.8119L10.8536 59.8768L10.9879 59.8119L10.8536 59.7471ZM11.3442 45.05H11.8672L11.6404 44.8232L11.3442 45.05ZM11.5109 46.8183L11.409 46.8831L11.5109 46.9803L11.6404 46.8831L11.5109 46.8183ZM11.733 46.1193C11.6643 46.1917 11.5883 46.2568 11.5062 46.3137L11.6358 46.3785L11.7654 46.3137L11.8302 46.1841L11.733 46.1193ZM11.7654 46.2813C11.7654 46.2582 11.7284 46.2489 11.7191 46.2489C11.7099 46.2489 11.6914 46.2489 11.6682 46.2165L11.7654 46.2813ZM11.8626 46.3461L11.7654 46.4109L11.8626 46.4757L11.9968 46.4109L11.8626 46.3461ZM11.8626 47.1979L11.7654 47.2951L11.8626 47.3599L11.9968 47.2951L11.8626 47.1979ZM11.7654 61.3349L11.8302 61.3997V61.3349H11.7654ZM11.9644 45.5638L11.8302 45.661L11.9644 45.7258L12.0941 45.661L11.9644 45.5638ZM11.9968 47.1655L12.0941 47.2951V47.1655H11.9968ZM12.1959 44.2677L12.0987 44.3649L12.1959 44.4297L12.3255 44.3649L12.1959 44.2677ZM12.0987 45.2166H12.3255L12.1635 45.1194L12.0987 45.2166ZM12.1959 46.1424L12.0987 46.2073L12.1959 46.3045L12.3255 46.2073L12.1959 46.1424ZM12.1959 46.4665L12.0987 46.5359L12.1959 46.6331L12.3255 46.5359L12.1959 46.4665ZM12.3578 46.0776L12.3255 46.0082L12.2607 46.0452L12.3255 46.11L12.3578 46.0776ZM13.1771 60.673L13.1447 60.6405C13.019 60.641 12.8936 60.6518 12.7698 60.673C12.6333 60.6926 12.4957 60.7034 12.3578 60.7054H13.1771V60.673ZM12.4273 44.8L12.4921 44.8972V44.8H12.4273ZM12.5245 45.7258L12.4273 45.7906L12.5245 45.8554L12.6541 45.7906L12.5245 45.7258ZM12.6541 46.6516C12.5925 46.5876 12.5138 46.5426 12.4273 46.522V46.6516H12.6541ZM12.6217 44.4899L12.4921 44.5547L12.6217 44.6565L12.7513 44.5547L12.6217 44.4899ZM12.7189 45.0778L12.6541 45.1148H12.7513L12.7189 45.0778ZM12.8485 44.3927L12.7513 44.4575L12.8485 44.5223L12.9827 44.4575L12.8485 44.3927ZM12.8485 46.0962V46.161C12.8413 46.2237 12.8577 46.2869 12.8945 46.3382C12.9313 46.3895 12.9858 46.4253 13.0475 46.4387C13.1053 46.449 13.1595 46.474 13.2049 46.5113C13.2503 46.5485 13.2854 46.5969 13.3067 46.6516V46.6192L12.8485 46.0962ZM12.9503 61.1173L12.8485 61.2469L12.9503 61.3118L13.0799 61.2469L12.9503 61.1173ZM13.2743 45.1796L13.4085 45.1148L13.2743 45.0454L13.1771 45.1148L13.0799 45.0454L12.9827 45.1148L13.0799 45.2444L13.1771 45.1148L13.2743 45.1796ZM13.0799 46.0313L12.9827 46.0962L13.0799 46.161L13.1771 46.0962L13.0799 46.0313ZM13.3437 45.7351L13.3067 45.6703L13.2419 45.7027L13.3067 45.7675L13.3437 45.7351ZM13.4085 46.2258L13.3067 46.323L13.4085 46.3878L13.5057 46.323L13.4085 46.2258ZM13.5057 45.5731L13.4085 45.6703L13.5057 45.7351L13.6353 45.6703L13.5057 45.5731ZM14.0611 45.1472H13.8343L13.6353 45.3416L13.7325 45.4064C13.7556 45.4057 13.7782 45.3995 13.7983 45.3882C13.8184 45.3769 13.8356 45.3609 13.8482 45.3416C13.8776 45.2996 13.9175 45.2661 13.9639 45.2444L14.0287 45.2768L14.1583 45.212L14.0611 45.1472ZM13.8343 45.3092C13.8214 45.293 13.8035 45.2816 13.7834 45.2768C13.7643 45.2699 13.7469 45.2588 13.7325 45.2444L13.8343 45.3092ZM13.8343 60.7887L13.7325 60.9183L13.8343 60.9877L13.9639 60.9183L13.8343 60.7887ZM14.1583 44.9158L14.0611 45.013L14.1583 45.0778L14.2926 45.013L14.1583 44.9158ZM14.4869 44.7861H14.6165V44.6889L14.4869 44.7861ZM14.5841 45.7999L14.4869 45.8647L14.5841 45.9619L14.7137 45.8647L14.5841 45.7999ZM14.7137 60.3628L14.6165 60.4276L14.7137 60.4924L14.8155 60.4276L14.7137 60.3628ZM14.7137 60.7887L14.6165 60.9183L14.7137 60.9877L14.8155 60.9183L14.7137 60.7887ZM14.7508 45.7675L14.7832 45.7351L14.7137 45.6703L14.6489 45.7027L14.7137 45.7675H14.7508ZM15.0424 61.7052L14.9451 61.77L15.0424 61.8672L15.1395 61.77L15.0424 61.7052ZM15.1395 59.9045L15.0424 60.0341H15.2738L15.1395 59.9045ZM15.2414 59.4787L15.1395 59.5435L15.2414 59.6777L15.371 59.5435L15.2414 59.4787ZM15.6625 61.0525L15.5977 61.0849L15.6301 61.1497L15.6996 61.0849L15.6625 61.0525ZM15.7968 45.5731L15.6996 45.6703L15.7968 45.7351L15.8986 45.6564L15.7968 45.5731ZM15.6996 59.0204V59.1176H15.7968V59.0204H15.6996ZM15.8292 59.8721L15.8616 59.8397L15.7968 59.7749L15.732 59.8397L15.7968 59.8721H15.8292ZM16.056 59.4463L16.0884 59.4139L16.0236 59.349L15.9588 59.3815L16.0236 59.4463H16.056ZM16.255 60.7563C16.2597 60.7248 16.2569 60.6927 16.2469 60.6624C16.237 60.6322 16.2201 60.6048 16.1976 60.5823C16.1751 60.5598 16.1476 60.5428 16.1174 60.5329C16.0872 60.5229 16.055 60.5201 16.0236 60.5248V60.7563H16.255ZM16.4494 54.5719L16.3522 54.6367L16.4494 54.7339L16.579 54.6367L16.4494 54.5719ZM16.5142 51.8547V51.7899L16.417 51.8547L16.4818 51.9195L16.5142 51.8547ZM16.8104 45.013C16.7109 44.9007 16.5876 44.8121 16.4494 44.7537C16.4957 44.8417 16.5373 44.8833 16.579 44.8833C16.6206 44.8833 16.6808 44.8509 16.6808 44.7861L16.8104 45.013ZM16.6808 52.8823L16.6484 52.8499L16.579 52.9147H16.6808V52.8823ZM16.778 52.3916L16.6808 52.4888L16.778 52.5583L16.9076 52.4888L16.778 52.3916ZM16.778 56.8771L16.6808 56.942L16.778 57.0392L16.9076 56.942L16.778 56.8771ZM16.9076 46.8924L16.8104 46.9942L16.9076 47.059L17.0048 46.9942L16.9076 46.8924ZM16.8104 53.3406L16.8752 53.373L17.0048 53.2434H16.9724L16.8104 53.3406ZM16.9076 56.317L16.8104 56.4189L16.9076 56.4837L17.0048 56.4189L16.9076 56.317ZM17.0048 50.2993L16.9076 50.3641L17.0048 50.4937L17.139 50.3641L17.0048 50.2993ZM17.2362 53.0489C17.2336 52.9981 17.2227 52.9481 17.2038 52.9008L17.139 52.7527L16.9724 52.7851C17.0403 52.9189 17.1294 53.0408 17.2362 53.1462V53.0489ZM17.1066 46.0452L17.0048 46.11L17.1066 46.1748L17.2362 46.11L17.1066 46.0452ZM17.0048 49.5448H17.2871C17.2596 49.4934 17.2378 49.439 17.2223 49.3828C17.2012 49.3214 17.1682 49.2648 17.1251 49.2161L17.0048 49.5448ZM17.2362 45.8138L17.139 45.8786L17.2362 45.9758L17.3334 45.8786L17.2362 45.8138ZM17.139 50.1975V50.2854L17.2362 50.1836L17.139 50.1975ZM17.2362 50.9844L17.139 51.0492L17.2362 51.1464L17.3334 51.0492L17.2362 50.9844ZM17.2362 51.4103L17.139 51.5075L17.2362 51.5723L17.3334 51.5075L17.2362 51.4103ZM17.139 53.4702L17.1714 53.5396L17.3334 53.4702H17.139ZM17.1714 55.5023L17.139 55.5347H17.2362L17.1714 55.5023ZM17.139 57.2706L17.2362 57.4002V57.2706H17.139ZM17.2871 45.1935L17.2223 45.2259L17.2547 45.2907L17.3195 45.2259L17.2871 45.1935ZM17.3195 47.7117L17.2223 47.7441L17.3519 47.8089L17.4491 47.7441L17.3195 47.7117ZM17.3195 52.063L17.2223 52.1648L17.3195 52.2296L17.4491 52.1648L17.3195 52.063ZM17.3519 54.7802C17.3519 54.6506 17.3103 54.5719 17.2223 54.5534V54.7802H17.3519ZM17.2223 56.2846V56.3865C17.2223 56.5577 17.2964 56.6457 17.4491 56.6457L17.5509 56.6133L17.2223 56.2846ZM17.3843 44.7676L17.3195 44.8H17.4491L17.3843 44.7676ZM17.3843 46.8275L17.3195 46.8599L17.3843 46.9247L17.4491 46.8599L17.3843 46.8275ZM17.5509 49.7068C17.3982 49.7068 17.3195 49.8086 17.3195 50.0031C17.4529 49.9344 17.5661 49.8324 17.6482 49.7068H17.5509ZM17.4491 55.8634L17.3195 55.9606H17.7824L17.4491 55.8634ZM17.5509 46.2397L17.4491 46.3369L17.5509 46.4017L17.6482 46.3369L17.5509 46.2397ZM17.5509 47.5497L17.4491 47.6469L17.5509 47.7117L17.6482 47.6469L17.5509 47.5497ZM17.4491 49.318L17.8749 49.6744L17.6482 49.1513L17.4491 49.318ZM17.6482 50.2669L17.6158 50.2299L17.5509 50.2993H17.6482V50.2669ZM17.5509 51.6047V51.6741L17.6482 51.5723L17.5509 51.6047ZM17.7777 52.5907C17.7777 52.5027 17.6805 52.4564 17.5509 52.4564V52.5999L17.7777 52.5907ZM17.5509 54.2247V54.3543C17.6805 54.3543 17.7546 54.3127 17.7777 54.2247H17.5509ZM17.9721 54.9793C17.8832 55.0519 17.7852 55.1126 17.6805 55.1598C17.5926 55.1922 17.5509 55.294 17.5509 55.4699V55.5347L17.8425 55.3727C17.8909 55.3475 17.9315 55.3097 17.9601 55.2632C17.9886 55.2168 18.004 55.1634 18.0045 55.1089L17.9721 54.9793ZM17.6158 60.4091L17.5509 60.4415L17.5834 60.5063L17.6482 60.4415L17.6158 60.4091ZM17.7453 53.7016L18.1064 53.572L17.9721 53.4702L17.7453 53.7016ZM17.7777 57.1688H17.8749V57.0716L17.7777 57.1688ZM17.9073 55.7801H17.8101L17.8749 55.8495L17.9073 55.7801ZM18.074 47.1099C17.9877 47.1506 17.9176 47.2191 17.8749 47.3043L17.9721 47.3691L18.1064 47.3043L18.2035 47.1747L18.074 47.1099ZM17.8749 52.0167L18.1064 52.1509V51.8547L17.8749 52.0167ZM17.9721 52.6092L17.8749 52.674L17.9721 52.7712L18.1064 52.674L17.9721 52.6092ZM17.9721 57.6132L17.8749 57.7104L17.9721 57.7798L18.1064 57.7104L17.9721 57.6132ZM17.9721 55.5208L17.9397 55.5857L18.0416 55.7477L18.1064 55.7153L17.9721 55.5208ZM17.9721 44.8741V45.1935L18.2035 44.8972L17.9721 44.8741ZM18.2035 46.3137C18.2035 46.2736 18.1758 46.2412 18.1202 46.2165C18.0736 46.1957 18.0232 46.1847 17.9721 46.1841L18.2035 46.4109V46.3137ZM18.1064 47.2627L17.9721 47.1979C18.0248 47.2041 18.073 47.2307 18.1064 47.2719V47.2627ZM18.074 48.7347L17.9721 48.7995L18.074 48.9337L18.2035 48.7995L18.074 48.7347ZM17.9721 49.8503V49.9475L18.2035 49.8503H17.9721ZM18.0416 53.123L18.3008 53.2202V53.123H18.0416ZM18.3008 48.6375C18.2744 48.59 18.2417 48.5464 18.2035 48.5079C18.1625 48.5439 18.1294 48.588 18.1064 48.6375H18.3008ZM18.1064 54.4515L18.2035 54.5487V54.3173L18.1064 54.4515ZM18.3332 47.9385L18.2359 47.8367L18.2035 47.8691L18.2683 48.0033L18.3332 47.9385ZM18.3008 51.6417L18.2128 51.6741L18.31 51.7713L18.4396 51.6741L18.3008 51.6417ZM18.2035 52.4935V52.6925L18.5322 52.6277L18.2035 52.4935ZM18.2035 61.0386V61.2655H18.3008V61.0386H18.2035ZM18.3656 49.5818L18.3332 49.517L18.2683 49.5818L18.3008 49.6466L18.3656 49.5818ZM18.3008 53.8035V53.9331L18.6294 53.8035H18.3008ZM18.6294 48.9939C18.6042 48.9457 18.5714 48.9019 18.5322 48.8643C18.4903 48.9006 18.4557 48.9446 18.4303 48.9939H18.6294ZM18.4303 55.5394V55.8403H18.597L18.4303 55.5394ZM18.4303 57.2753V57.4049H18.5322L18.4303 57.2753ZM18.6294 48.1098L18.5322 48.1746L18.6294 48.2718L18.759 48.1746L18.6294 48.1098ZM18.6294 53.0536L18.5322 53.1508L18.6294 53.2156L18.759 53.1508L18.6294 53.0536ZM18.5322 54.7848V54.882H18.759L18.5322 54.7848ZM18.6942 44.7723H18.6294L18.759 44.8047L18.6942 44.7723ZM18.8562 45.4574L18.7266 44.8695L18.6294 45.4574C18.6397 45.436 18.6563 45.4183 18.677 45.4067C18.6977 45.3951 18.7215 45.3902 18.7451 45.3925C18.7661 45.3893 18.7875 45.3919 18.8071 45.4001C18.8267 45.4083 18.8437 45.4217 18.8562 45.4388V45.4574ZM18.7266 51.7436L18.6294 51.8408L18.7266 51.9056L18.8562 51.8408L18.7266 51.7436ZM18.6294 54.2293H18.759V54.1321L18.6294 54.2293ZM18.7266 58.9417L18.6294 59.0389L18.7266 59.1037L18.8562 59.0389L18.7266 58.9417ZM18.8562 49.2856L18.7914 49.1883L18.759 49.2208L18.8562 49.3226V49.2856ZM18.8562 52.2018L18.759 52.2666L18.8562 52.3315L18.958 52.2666L18.8562 52.2018ZM18.8562 52.8545L18.759 52.9193L18.8562 52.9841L18.958 52.9193L18.8562 52.8545ZM18.958 45.1333C18.9186 45.157 18.8857 45.1902 18.8623 45.2298C18.8388 45.2694 18.8256 45.3142 18.8238 45.3601H18.958V45.1333ZM18.8238 45.786L19.2866 46.3415L18.9626 45.786H18.8238ZM18.958 54.359L18.8562 54.4608L18.958 54.5256L19.0876 54.4608L18.958 54.359ZM19.0552 44.8371L18.958 44.9019L19.0552 44.9991L19.1848 44.9019L19.0552 44.8371ZM19.1848 60.1545L19.0876 60.2193L19.1848 60.3489L19.282 60.2193L19.1848 60.1545ZM19.3792 47.0312L19.282 47.096L19.3792 47.1608L19.5134 47.096L19.3792 47.0312ZM19.3792 58.1918L19.282 58.2566L19.3792 58.3538L19.5134 58.2566L19.3792 58.1918ZM19.3792 61.2979L19.282 61.3627H19.5134L19.3792 61.2979ZM19.6106 45.1657L19.3792 45.3277L19.7402 45.2305L19.6106 45.1657ZM19.5134 46.9618L19.4116 46.8646V46.897C19.4101 46.9107 19.4118 46.9246 19.4164 46.9376C19.421 46.9506 19.4284 46.9624 19.4382 46.9722C19.4479 46.982 19.4598 46.9894 19.4728 46.994C19.4858 46.9986 19.4997 47.0003 19.5134 46.9988V46.9618ZM19.4116 59.3676H19.7402L19.6106 59.238L19.4116 59.3676ZM19.6013 58.6177L19.5041 58.7195L19.6013 58.7843L19.7309 58.7195L19.6013 58.6177ZM20.0271 46.5822L19.93 46.6794L19.6013 46.7442L20.1568 46.6794L20.0271 46.5822ZM19.6985 46.809L19.6013 46.8738V46.971L19.8281 46.8738L19.6985 46.809ZM19.6985 59.9323L19.6013 60.0619H19.8281L19.6985 59.9323ZM19.8281 45.0407H19.93V44.9111L19.8281 45.0407ZM19.8281 45.6981L19.93 45.7953V45.6564L19.8281 45.6981ZM20.2539 60.5526C20.3002 60.5526 20.3234 60.5526 20.3234 60.5202L20.2539 60.4554C20.2302 60.4891 20.2188 60.53 20.2216 60.5711V60.6868L20.2539 60.5526ZM20.4854 45.2768L20.4206 45.4064L20.2539 45.4712L20.3558 45.536C20.4431 45.5007 20.5208 45.4452 20.5826 45.374L20.4854 45.2768ZM20.2539 47.3367H20.7445L20.5502 47.1099L20.2539 47.3367ZM20.4206 44.5871L20.4854 44.7213V44.5871H20.4206ZM20.4854 45.4388C20.4687 45.4201 20.4455 45.4085 20.4206 45.4064C20.4206 45.4064 20.453 45.4064 20.453 45.4064C20.453 45.4064 20.4715 45.4064 20.4946 45.4064L20.4854 45.4388ZM20.5826 45.2444L20.7445 45.374L20.814 45.1472H20.7769L20.5826 45.2444ZM20.9436 44.2955L20.814 44.3927L20.9436 44.9482L21.0732 44.3927L20.9436 44.2955ZM20.9112 60.2008L20.814 60.2332L20.8464 60.298L20.9112 60.2332V60.2008ZM21.0732 60.6637H21.0408L21.1056 60.7609L21.138 60.7285L21.0732 60.6637ZM21.138 46.5915L21.0732 46.6887L21.138 46.7535L21.2352 46.6887L21.138 46.5915ZM21.4018 46.2304V46.36H21.4666L21.4018 46.2304ZM21.4018 59.1546V59.2565H21.4666L21.4018 59.1546ZM21.5638 60.5433L22.221 60.8396L22.0544 60.71L21.5638 60.5433ZM21.7952 45.786C21.9107 45.7379 22.0299 45.6992 22.1516 45.6703C22.2826 45.6397 22.3987 45.5644 22.4802 45.4574L22.0544 45.3601L21.7952 45.786ZM21.7952 46.2119L22.221 46.735L22.4802 46.0128L21.7952 46.2119ZM21.9155 59.5435L22.0452 59.6129L22.3738 59.349H22.309L21.9155 59.5435ZM22.0775 44.9482L22.0452 44.8833L21.9804 44.9482L22.0452 45.013L22.0775 44.9482ZM22.0452 60.1036V60.2008L22.1423 60.1036H22.0452ZM22.2118 44.5547L22.471 45.212L22.7024 45.013L22.2118 44.5547ZM22.7024 59.7749C22.6445 59.7663 22.5854 59.7714 22.5298 59.7898C22.4742 59.8082 22.4237 59.8393 22.3823 59.8807C22.3409 59.9221 22.3098 59.9726 22.2914 60.0282C22.2731 60.0838 22.268 60.1429 22.2766 60.2008C22.4478 60.2008 22.5543 60.1499 22.5867 60.0527C22.6288 59.9412 22.7028 59.8446 22.7996 59.7749H22.7024ZM22.5358 60.7007C22.5106 60.6525 22.4778 60.6087 22.4386 60.5711L22.3738 60.7007H22.5358ZM22.7672 44.8278L22.7024 44.8926L22.7672 44.9898L22.8644 44.8926L22.7672 44.8278ZM22.7024 58.5714V58.7056H22.8412V58.5714H22.7024ZM22.8968 47.022L22.7996 47.0868L22.8968 47.1516L23.0264 47.0868L22.8968 47.022ZM22.8968 59.2935L22.7996 59.3259L22.8968 59.3907L23.0264 59.3583L22.8968 59.2935ZM22.8644 60.1776L22.7996 60.2101L22.832 60.2748L22.8644 60.2101V60.1776ZM22.8968 60.7007L22.7996 60.7655L22.8968 60.8952L23.0264 60.7655L22.8968 60.7007ZM23.517 45.1241C23.5102 45.1037 23.4971 45.0861 23.4796 45.0736C23.4622 45.0611 23.4412 45.0545 23.4198 45.0546C23.3781 45.0546 23.355 45.0778 23.355 45.1241L22.8921 45.1889L23.517 45.1241ZM23.0264 46.9757C23.0598 47.0336 23.1076 47.0819 23.1652 47.116C23.2227 47.1501 23.2881 47.1687 23.355 47.1701V47.1377L23.0264 46.9757ZM23.2254 59.8999L23.1282 60.0295H23.355L23.2254 59.8999ZM23.1282 60.423V60.5202L23.193 60.3906V60.423H23.1282ZM23.355 45.8601L23.4522 45.9897V45.8601H23.355ZM23.4522 44.5501C23.4731 44.7266 23.555 44.8903 23.6836 45.013V44.8833L23.4522 44.5501ZM23.4522 59.5388L23.6188 59.7703L23.7808 59.5388H23.4522ZM23.517 46.3832V46.647L23.878 46.5174L23.517 46.3832ZM23.7808 45.5314L23.6836 45.6657L23.878 45.5314H23.7808ZM23.6836 60.6868V60.7516H23.878V60.6868H23.6836ZM24.2298 45.013V45.1148H24.3594V45.013H24.2298ZM24.3594 45.9943L24.2298 45.7675V45.9943H24.3594ZM24.2298 46.6516L24.3594 46.7488L24.5584 46.522H24.4565L24.2298 46.6516ZM24.3594 58.8584L24.2298 58.8908L24.327 58.9556L24.4565 58.8908L24.3594 58.8584ZM24.2946 59.7425L24.6926 59.5435L24.4936 59.349L24.2946 59.7425ZM24.5584 45.6703V45.2074L24.4565 45.7629L24.5584 45.6703ZM24.6556 44.8185L24.5584 44.8833L24.6556 44.9806L24.7852 44.8833L24.6556 44.8185ZM24.6556 45.1472L24.5584 45.212L24.6556 45.3092L24.7852 45.212L24.6556 45.1472ZM24.6556 58.5945L24.5584 58.6964L24.6556 58.7612L24.7852 58.6964L24.6556 58.5945ZM24.9796 45.8971L24.8824 45.9943L24.6556 46.0638L25.1184 45.9943L24.9796 45.8971ZM25.012 45.4342L24.8824 45.3694L24.7852 45.4342L24.8824 45.3694L25.012 45.4342ZM25.1786 60.3906L25.1138 60.423L25.1786 60.4878L25.211 60.423L25.1786 60.3906ZM25.211 61.0155L25.1138 61.0803L25.211 61.2099L25.3406 61.0803L25.211 61.0155ZM25.373 46.9757L25.211 46.8414V46.9386C25.211 47.0266 25.2527 47.0729 25.3406 47.0729V47.0451L25.373 46.9757ZM25.4378 60.784L25.3406 60.9137L25.4378 60.9831L25.5396 60.9137L25.4378 60.784ZM25.5396 45.4342V45.5314H25.6692V45.4342H25.5396ZM25.6368 61.0155L25.5396 61.0803L25.6368 61.2099L25.7664 61.0803L25.6368 61.0155ZM25.7664 46.7442V46.8414H25.8636V46.7442H25.7664ZM25.9654 58.7797C25.8312 58.7797 25.7664 58.8537 25.7664 59.0065L25.9978 58.7797H25.9654ZM26.0811 60.9322L25.7525 61.034H25.9839V60.9322H26.0811ZM25.8497 61.6219L25.7525 61.6867L25.8497 61.7515L25.9839 61.6867L25.8497 61.6219ZM25.9839 46.4341L26.0811 46.6655V46.4341H25.9839ZM26.0811 60.4415L26.0163 60.4091L25.9839 60.4415L26.0487 60.4091L26.0811 60.4415ZM26.3079 60.048H26.4051V59.886L26.3079 60.048ZM26.4745 61.0664L26.4051 61.0988L26.4745 61.1636L26.5069 61.0988L26.4745 61.0664ZM26.5069 44.8V45.3555L26.7337 44.8926L26.5069 44.8ZM26.7985 59.7888L26.7337 59.724L26.6689 59.7564L26.7337 59.7888H26.7985ZM26.8309 44.7352L26.7337 44.8L26.8309 44.8648L26.9651 44.8L26.8309 44.7352ZM26.7337 46.6655V46.8275C26.7846 46.8291 26.8346 46.8142 26.8764 46.785C26.9181 46.7558 26.9492 46.7139 26.9651 46.6655H26.7337ZM26.9328 44.2769L26.8309 44.3742L26.9328 44.439L27.0624 44.3742L26.9328 44.2769ZM26.9651 45.2259V45.3555H27.0624V45.1935L26.9651 45.2259ZM27.0624 45.911L26.9651 46.0082L27.0624 46.0776L27.1596 46.0082L27.0624 45.911ZM27.1596 60.048C27.1321 60.0013 27.0995 59.9579 27.0624 59.9184C27.0226 59.9556 26.9897 59.9994 26.9651 60.048H27.1596ZM27.391 44.8C27.3342 44.8537 27.2844 44.9144 27.2429 44.9806C27.1931 45.0408 27.1639 45.1154 27.1596 45.1935C27.195 45.1905 27.2291 45.1782 27.2583 45.1579C27.2875 45.1375 27.3109 45.1099 27.3262 45.0778C27.3601 45.0228 27.3822 44.9613 27.391 44.8972V44.8ZM27.391 44.2769L27.2891 44.3742L27.391 44.439L27.4882 44.3742L27.391 44.2769ZM27.4558 45.6194L27.391 45.5499L27.3262 45.2259L27.391 45.6888L27.4558 45.6194ZM27.4234 46.4341C27.465 46.4341 27.4743 46.4341 27.4558 46.3878C27.4372 46.3415 27.4095 46.3369 27.391 46.3369L27.3262 45.7814L27.391 46.4341H27.4234Z" fill="#32565B"/>
</svg>
