<?xml version="1.0" encoding="UTF-8"?>
<!DOCTYPE svg PUBLIC "-//W3C//DTD SVG 1.1//EN" "http://www.w3.org/Graphics/SVG/1.1/DTD/svg11.dtd">
<svg xmlns="http://www.w3.org/2000/svg" version="1.1" width="500px" height="500px" style="shape-rendering:geometricPrecision; text-rendering:geometricPrecision; image-rendering:optimizeQuality; fill-rule:evenodd; clip-rule:evenodd" xmlns:xlink="http://www.w3.org/1999/xlink">
<g><path style="opacity:0.985" fill="#fcba6f" d="M 308.5,29.5 C 310.36,30.9387 312.027,32.6053 313.5,34.5C 314.344,38.0991 314.677,41.7657 314.5,45.5C 314.167,50.8333 313.833,56.1667 313.5,61.5C 311.72,74.6999 310.054,88.0333 308.5,101.5C 307.883,101.611 307.383,101.944 307,102.5C 306.474,109.171 305.974,115.837 305.5,122.5C 304.838,126.466 304.505,130.466 304.5,134.5C 303.411,142.112 302.745,149.779 302.5,157.5C 301.111,162.269 300.444,167.269 300.5,172.5C 298.438,187.118 296.772,201.784 295.5,216.5C 293.946,220.567 293.28,224.9 293.5,229.5C 290.886,253.604 288.22,277.604 285.5,301.5C 283.946,305.567 283.28,309.9 283.5,314.5C 283.887,319.08 283.053,323.414 281,327.5C 278.217,330.456 275.384,333.123 272.5,335.5C 241.498,335.667 210.498,335.5 179.5,335C 177.981,333.649 176.648,332.149 175.5,330.5C 174.167,322.5 174.167,314.5 175.5,306.5C 184.457,232.776 192.957,159.109 201,85.5C 203.43,70.7791 205.264,55.9457 206.5,41C 208.094,36.6283 210.761,33.1283 214.5,30.5C 245.826,29.5002 277.16,29.1668 308.5,29.5 Z"/></g>
<g><path style="opacity:0.946" fill="#6eb1fd" d="M 308.5,29.5 C 316.86,29.1688 325.193,29.5021 333.5,30.5C 337.933,33.8444 339.6,38.3444 338.5,44C 327.893,133.366 317.726,222.866 308,312.5C 306.804,317.377 305.804,322.377 305,327.5C 302.825,330.376 300.325,332.876 297.5,335C 289.173,335.5 280.84,335.666 272.5,335.5C 275.384,333.123 278.217,330.456 281,327.5C 283.053,323.414 283.887,319.08 283.5,314.5C 285.054,310.433 285.72,306.1 285.5,301.5C 288.22,277.604 290.886,253.604 293.5,229.5C 295.054,225.433 295.72,221.1 295.5,216.5C 296.772,201.784 298.438,187.118 300.5,172.5C 301.889,167.731 302.556,162.731 302.5,157.5C 302.745,149.779 303.411,142.112 304.5,134.5C 306.136,130.79 306.802,126.79 306.5,122.5C 307.167,115.5 307.833,108.5 308.5,101.5C 310.054,88.0333 311.72,74.6999 313.5,61.5C 314.731,56.3377 315.731,51.0043 316.5,45.5C 316.664,42.8127 316.497,40.146 316,37.5C 315.623,36.0577 314.79,35.0577 313.5,34.5C 312.027,32.6053 310.36,30.9387 308.5,29.5 Z"/></g>
<g><path style="opacity:1" fill="#c6b6a7" d="M 313.5,34.5 C 314.79,35.0577 315.623,36.0577 316,37.5C 316.497,40.146 316.664,42.8127 316.5,45.5C 315.833,45.5 315.167,45.5 314.5,45.5C 314.677,41.7657 314.344,38.0991 313.5,34.5 Z"/></g>
<g><path style="opacity:1" fill="#9cb3d2" d="M 314.5,45.5 C 315.167,45.5 315.833,45.5 316.5,45.5C 315.731,51.0043 314.731,56.3377 313.5,61.5C 313.833,56.1667 314.167,50.8333 314.5,45.5 Z"/></g>
<g><path style="opacity:1" fill="#e8b984" d="M 308.5,101.5 C 307.833,108.5 307.167,115.5 306.5,122.5C 306.167,122.5 305.833,122.5 305.5,122.5C 305.974,115.837 306.474,109.171 307,102.5C 307.383,101.944 307.883,101.611 308.5,101.5 Z"/></g>
<g><path style="opacity:1" fill="#b9b5b6" d="M 305.5,122.5 C 305.833,122.5 306.167,122.5 306.5,122.5C 306.802,126.79 306.136,130.79 304.5,134.5C 304.505,130.466 304.838,126.466 305.5,122.5 Z"/></g>
<g><path style="opacity:1" fill="#9eb4d1" d="M 302.5,157.5 C 302.556,162.731 301.889,167.731 300.5,172.5C 300.444,167.269 301.111,162.269 302.5,157.5 Z"/></g>
<g><path style="opacity:1" fill="#b0b5bd" d="M 295.5,216.5 C 295.72,221.1 295.054,225.433 293.5,229.5C 293.28,224.9 293.946,220.567 295.5,216.5 Z"/></g>
<g><path style="opacity:1" fill="#b5b5b9" d="M 285.5,301.5 C 285.72,306.1 285.054,310.433 283.5,314.5C 283.28,309.9 283.946,305.567 285.5,301.5 Z"/></g>
<g><path style="opacity:0.984" fill="#febb6c" d="M 218.5,337.5 C 259.964,334.295 286.131,352.628 297,392.5C 300.687,433.987 282.521,460.154 242.5,471C 201.013,474.687 174.846,456.521 164,416.5C 160.436,374.934 178.603,348.601 218.5,337.5 Z"/></g>
</svg>
